<?xml version="1.0" standalone="no"?>
<!DOCTYPE svg PUBLIC "-//W3C//DTD SVG 20010904//EN"
 "http://www.w3.org/TR/2001/REC-SVG-20010904/DTD/svg10.dtd">
<svg version="1.0" xmlns="http://www.w3.org/2000/svg"
 width="864.000000pt" height="864.000000pt" viewBox="0 0 864.000000 864.000000"
 preserveAspectRatio="xMidYMid meet">
<metadata>
Created by potrace 1.11, written by Peter Selinger 2001-2013
</metadata>
<g transform="translate(0.000000,864.000000) scale(0.100000,-0.100000)"
fill="#000000" stroke="none">
<path d="M3903 7230 c-40 -16 -63 -67 -57 -127 4 -51 3 -54 -23 -64 -44 -16
-109 -91 -124 -143 -13 -43 -16 -46 -49 -47 -54 -1 -69 -5 -108 -33 -69 -48
-103 -120 -96 -202 9 -106 138 -243 199 -212 75 39 81 140 11 178 -31 16 -33
39 -7 71 17 21 21 22 46 11 37 -17 65 -54 93 -122 38 -90 27 -162 -49 -301
-42 -76 -184 -197 -275 -234 -136 -55 -304 -14 -304 75 0 53 51 66 115 30 20
-11 46 -20 58 -20 51 0 90 74 68 129 -17 39 -101 91 -158 96 -66 6 -143 -19
-187 -62 l-35 -35 -30 21 c-43 31 -105 50 -141 45 -20 -4 -38 0 -48 9 -23 20
-129 74 -177 91 -46 15 -112 16 -135 1 -25 -16 -51 -64 -52 -93 -2 -50 64
-161 168 -287 42 -51 111 -243 141 -395 3 -14 6 -29 7 -35 7 -27 18 -83 20
-105 8 -60 18 -127 22 -150 19 -112 25 -453 11 -625 -11 -128 -25 -256 -32
-295 -1 -8 -6 -42 -10 -75 -3 -32 -9 -63 -11 -67 -2 -4 -6 -26 -9 -50 -4 -43
-56 -297 -76 -373 -6 -22 -13 -51 -16 -64 -2 -14 -6 -28 -9 -33 -3 -4 -7 -16
-9 -25 -13 -55 -40 -149 -66 -228 -17 -49 -32 -109 -35 -133 -7 -77 43 -151
116 -171 22 -6 490 -10 1230 -10 1125 1 1197 2 1235 18 22 10 50 29 61 42 18
20 58 110 69 154 1 6 5 17 8 25 17 44 51 158 55 179 2 14 7 32 12 41 5 9 23
70 40 136 39 149 41 155 45 179 3 11 9 38 14 60 5 22 12 51 15 65 3 14 7 36
10 50 3 14 8 36 11 50 8 40 14 72 20 110 3 20 8 47 10 60 39 196 61 575 42
705 -5 28 -10 65 -12 84 -2 19 -6 48 -9 65 -2 17 -8 54 -12 81 -3 28 -8 59
-10 70 -2 11 -9 49 -15 85 -5 35 -39 152 -75 259 -35 106 -64 210 -64 231 0
23 9 51 25 74 14 20 25 41 25 46 0 4 3 10 8 12 29 13 111 173 117 229 7 67
-19 102 -88 121 -73 19 -187 -16 -282 -88 -20 -14 -49 -24 -85 -27 -75 -6 -82
-9 -123 -40 -28 -21 -38 -24 -44 -14 -11 17 -83 71 -83 62 0 -4 -6 -2 -13 4
-22 17 -96 20 -147 5 -59 -18 -130 -84 -130 -122 0 -27 33 -91 47 -93 5 0 17
-2 27 -4 11 -2 41 7 67 21 58 29 71 30 93 5 22 -24 14 -70 -15 -97 -39 -35
-165 -50 -259 -29 -167 36 -343 238 -354 405 -2 28 22 119 35 136 5 6 7 13 4
16 -7 7 78 85 101 92 25 8 54 -16 54 -43 0 -20 -32 -61 -47 -61 -6 0 -15 -17
-20 -38 -8 -32 -7 -42 7 -60 40 -49 99 -32 176 50 97 105 103 194 17 289 -41
46 -103 77 -159 81 -40 3 -47 9 -64 61 -14 44 -61 96 -107 120 -27 15 -30 20
-28 58 3 49 -14 96 -44 123 -24 21 -102 30 -138 16z m95 -1060 c17 -37 63
-109 84 -132 7 -8 25 -27 40 -44 l27 -29 -209 0 c-116 0 -210 1 -210 2 0 1 23
24 51 50 64 60 136 166 149 218 1 6 7 19 12 29 10 18 12 16 25 -20 8 -21 22
-55 31 -74z"/>
<path d="M1603 6014 c-63 -31 -69 -82 -25 -189 16 -38 32 -83 37 -100 32 -117
54 -213 61 -260 3 -27 8 -59 10 -70 10 -54 18 -198 18 -360 0 -190 -7 -289
-30 -425 -4 -25 -8 -54 -9 -66 -1 -11 -4 -24 -7 -30 -3 -5 -8 -26 -12 -47 -15
-80 -70 -256 -121 -383 -67 -166 -70 -184 -35 -222 11 -12 38 -26 61 -32 36
-10 57 -14 139 -25 75 -11 107 -16 120 -20 8 -2 38 -7 65 -10 28 -3 61 -7 75
-10 14 -3 43 -8 65 -11 22 -3 59 -10 83 -14 77 -14 124 6 151 64 38 81 51 112
86 211 20 55 39 107 42 115 3 8 7 20 8 25 2 6 14 51 28 100 34 120 58 235 73
345 3 25 8 54 10 65 17 84 24 470 11 615 -13 155 -25 230 -49 315 -11 39 -23
84 -27 100 -4 17 -15 44 -24 62 -10 18 -17 39 -17 48 0 8 -4 15 -10 15 -5 0
-10 5 -10 11 0 15 -74 120 -106 151 -16 15 -42 31 -57 37 -17 7 -131 11 -301
10 -218 -1 -279 -4 -303 -15z"/>
<path d="M6653 5548 c-26 -34 -16 -88 35 -179 80 -145 59 -202 -63 -168 -100
27 -192 38 -215 24 -4 -3 -11 -17 -14 -31 -6 -21 0 -35 23 -65 36 -44 41 -93
13 -108 -10 -5 -68 -11 -130 -13 -62 -2 -112 -5 -112 -8 0 -3 -17 -6 -38 -7
-39 -3 -97 -11 -97 -13 0 -1 -9 -3 -20 -5 -11 -2 -35 -7 -53 -10 -60 -11 -79
-82 -30 -115 21 -15 153 -60 174 -60 5 0 20 -9 31 -20 18 -17 20 -23 10 -45
-7 -13 -15 -25 -19 -25 -5 0 -8 -7 -8 -15 0 -8 -4 -15 -10 -15 -5 0 -10 -6
-10 -14 0 -8 -4 -16 -8 -18 -13 -5 -72 -95 -72 -109 0 -7 -6 -20 -13 -28 -8
-9 -19 -32 -26 -51 -7 -19 -17 -44 -21 -55 -12 -28 -37 -114 -44 -150 -42
-202 -48 -275 -51 -610 -1 -148 -5 -283 -9 -300 -4 -16 -9 -39 -10 -50 -1 -12
-6 -26 -10 -33 -4 -7 -5 -12 -2 -12 3 0 -4 -25 -14 -55 -10 -30 -16 -55 -13
-55 3 0 0 -6 -6 -14 -6 -7 -25 -40 -41 -73 -31 -62 -141 -183 -166 -183 -8 0
-14 -3 -14 -8 0 -7 -71 -42 -95 -48 -5 -1 -36 -9 -69 -17 -52 -14 -234 -15
-1602 -12 -1174 2 -1552 6 -1580 15 -52 17 -75 40 -168 165 -94 125 -200 235
-292 301 -65 46 -192 111 -232 119 -12 2 -26 6 -31 10 -5 3 -22 7 -38 9 -43 7
-86 16 -103 22 -8 3 -31 8 -50 10 -19 3 -43 7 -53 10 -10 3 -30 7 -45 9 -15 2
-108 18 -207 35 -99 17 -193 33 -210 35 -16 2 -41 7 -55 9 -38 7 -101 17 -140
22 -19 2 -46 6 -60 9 -23 4 -71 12 -125 20 -11 2 -42 6 -70 9 -47 6 -64 9
-125 21 -142 30 -193 -27 -166 -182 5 -29 75 -229 96 -278 5 -11 10 -29 12
-39 4 -27 46 -54 97 -61 24 -4 51 -11 61 -17 36 -23 109 -175 164 -343 9 -27
19 -57 23 -65 3 -8 7 -18 7 -21 1 -3 12 -29 25 -57 16 -34 33 -54 50 -60 14
-6 47 -17 73 -26 25 -10 59 -29 73 -44 76 -75 183 -274 289 -537 67 -165 87
-205 101 -205 6 0 21 -7 33 -16 12 -8 49 -17 81 -19 103 -5 156 -38 304 -186
134 -135 169 -158 234 -160 103 -3 191 96 168 188 -9 37 -32 61 -73 79 -44 18
-37 35 24 57 84 32 206 13 279 -43 11 -8 65 -60 121 -116 121 -121 175 -160
240 -172 43 -8 55 -6 94 15 78 41 114 120 86 188 -14 32 -54 65 -81 65 -26 0
-17 37 13 49 28 11 106 26 132 25 62 -2 152 -38 184 -73 11 -12 23 -21 27 -21
5 0 30 -23 56 -52 81 -88 177 -179 205 -193 62 -34 144 -24 196 23 36 32 48
55 55 101 9 52 -34 120 -74 121 -21 0 -40 23 -31 36 6 10 31 21 72 32 35 9
128 8 160 -2 67 -21 129 -68 227 -171 123 -129 188 -175 250 -175 74 0 143 52
160 120 17 69 -2 111 -63 139 -55 26 -50 44 18 67 73 24 169 15 236 -21 29
-16 105 -81 174 -150 75 -74 141 -130 168 -143 101 -48 207 -7 241 93 25 73 4
118 -69 151 -18 8 -32 20 -29 27 4 15 50 38 86 43 14 2 37 5 51 7 50 8 160
-29 207 -68 6 -5 65 -63 131 -127 132 -130 184 -162 259 -155 49 4 115 47 134
87 35 74 12 143 -61 180 -22 11 -40 25 -40 31 0 16 88 50 133 52 97 2 164 -25
239 -96 26 -24 76 -59 110 -78 58 -31 70 -34 153 -34 70 0 97 4 120 18 42 26
75 80 81 135 5 38 2 53 -18 81 -12 19 -36 42 -53 51 -16 9 -31 26 -33 37 -4
29 85 60 165 57 75 -2 135 -28 193 -84 64 -61 109 -90 140 -90 25 0 92 43 179
115 100 82 320 325 295 325 -4 0 0 8 8 18 30 35 75 141 94 223 11 46 10 203
-2 260 -18 87 -51 184 -97 284 -23 50 -44 92 -47 95 -3 3 -21 32 -39 65 -47
84 -179 276 -318 462 -65 87 -120 160 -123 163 -20 19 -113 154 -134 196 -70
139 -52 256 57 367 53 55 157 114 216 123 l32 5 -39 -63 c-78 -129 -100 -199
-73 -232 11 -13 17 -12 49 6 20 11 48 28 62 38 70 49 149 57 265 24 6 -2 19
-5 30 -8 123 -30 312 -128 362 -188 31 -38 69 -68 89 -72 10 -2 24 -5 29 -7 6
-2 24 0 41 5 59 14 91 110 69 211 -10 50 -98 141 -173 179 -29 14 -53 26 -54
25 -2 0 -14 4 -28 9 -14 6 -46 17 -71 26 -55 20 -74 39 -86 86 -19 71 52 151
135 152 72 1 172 -64 172 -111 0 -17 36 -86 52 -99 8 -6 46 -13 85 -16 89 -5
135 -26 156 -72 10 -19 15 -39 13 -43 -10 -16 50 -72 84 -80 56 -12 101 13
139 80 71 121 90 209 78 354 -9 103 -24 111 -207 114 -25 1 -54 1 -65 2 -11 0
-27 0 -35 0 -24 1 -115 27 -141 42 -111 59 -164 124 -244 300 -28 61 -86 126
-133 149 -15 8 -36 20 -47 26 -18 11 -102 49 -200 92 -51 22 -127 57 -185 84
-25 11 -48 20 -52 18 -5 -1 -8 2 -8 8 0 6 -5 10 -11 10 -21 0 -382 184 -416
212 -20 16 -69 20 -80 6z"/>
</g>
</svg>
