<?xml version="1.0" encoding="utf-8"?>
<!-- Generator: Adobe Illustrator 22.0.1, SVG Export Plug-In . SVG Version: 6.00 Build 0)  -->
<svg version="1.1" id="Layer_1" xmlns="http://www.w3.org/2000/svg" xmlns:xlink="http://www.w3.org/1999/xlink" x="0px" y="0px"
	 viewBox="0 0 82.8 82.7" style="enable-background:new 0 0 82.8 82.7;" xml:space="preserve">
<style type="text/css">
	.st0{fill:#FFFCFC;}
</style>
<title>rightArrow</title>
<path class="st0" d="M27.9,61.9c-2.9,4-2.5,9.8,2.4,12.1c3.7,1.7,8.2,0.6,10.6-2.8c5.2-7.2,1-16.2-4-22.2
	c-6.4-7.6-18.5-11.4-25.9-2.8C8,49.7,7.4,55,11.2,58c4.1,3.3,9,0.9,11.7-2.9c2.3-3.1-2.9-6-5.2-3c-0.2,0.6-0.6,1-1.2,1.2
	c-0.8,0.1-1.5-0.4-1.7-1.1c-0.2-0.5-0.1-1,0.2-1.4c0.7-1,1.7-1.8,2.7-2.5c2.4-1.4,5-1.3,7.6-0.5c3.7,1.3,6.3,3.9,8.6,7
	c2,2.7,3.6,5.5,3.3,9c0,1.3-0.4,2.5-1,3.7c-2,2.7-5.6,0.7-3.2-2.6C35.4,61.8,30.1,58.8,27.9,61.9z"/>
<path class="st0" d="M34.2,19.3c-1-1.3-1.6-3.5,0.6-3.9c0.9-0.1,1.7,0.2,2.2,0.9c1,1,1.2,2.7,1.3,4c0.3,3.4-1.3,6.3-3.3,9
	c-2.3,3.1-4.8,5.7-8.6,7c-2.3,0.8-4.8,1-7.1-0.2c-1-0.6-2.7-1.7-3.2-2.8c-0.2-0.4-0.4-0.8-0.6-1.2c1.3-1.8,2.4-1.8,3.3-0.2
	c2.2,3,7.4,0.1,5.2-3c-2.7-3.7-7.5-6.2-11.7-2.9c-3.9,3.1-3.2,8.3-0.2,11.8c7.4,8.5,19.5,4.8,25.9-2.8c4.9-6,9.3-14.8,4-22.2
	c-2.5-3.3-6.8-4.4-10.6-2.8c-4.9,2.2-5.3,8-2.4,12.1C31.3,25.4,36.5,22.4,34.2,19.3L34.2,19.3z"/>
<path class="st0" d="M55.4,34.5c2.2,7-0.6,13.6-0.9,14.3c-2.9,6.7-9,10-8.3,11.1c0.4,0.6,2.4,0,3.7-0.5c6.3-2.6,11.9-10.7,11.5-19.6
	c-0.4-7-4.4-13.2-9.5-16.1c-1.6-0.9-3.8-1.8-4.2-1.3C46.9,23.4,53.2,27.2,55.4,34.5z"/>
<path class="st0" d="M63.3,48.9c-2.2-7.1,0.6-13.7,0.9-14.4c3-6.7,9.1-10,8.3-11.1c-0.4-0.6-2.4,0-3.7,0.5
	c-6.3,2.6-12,10.8-11.5,19.7c0.4,7,4.5,13.3,9.6,16.2c1.6,0.9,3.8,1.8,4.3,1.3C71.9,60,65.6,56.1,63.3,48.9z"/>
</svg>
