<?xml version="1.0" encoding="utf-8"?>
<!-- Generator: Adobe Illustrator 22.0.1, SVG Export Plug-In . SVG Version: 6.00 Build 0)  -->
<svg version="1.1" id="Layer_1" xmlns="http://www.w3.org/2000/svg" xmlns:xlink="http://www.w3.org/1999/xlink" x="0px" y="0px"
	 viewBox="0 0 226.9 61.8" style="enable-background:new 0 0 226.9 61.8;" xml:space="preserve">
<style type="text/css">
	.st0{fill:#200000;}
</style>
<defs>
	
	<link  href="../css/main-styles.css" rel="stylesheet" xmlns="http://www.w3.org/1999/xhtml"></link>
</defs>
<path class="st0" d="M201.8,55.6l-0.1,0.2l-0.1-0.2H201.8z M115.3,26.8c2.6-1.5,5.3-3.9,4.5-7.3c-1.1-4.7-7.8-5-11.7-4.3
	c-4.3,0.9-6.6,4.6-6,8.8s4,6.9,7.9,7.9c7.5,1.8,16.9-2.5,15.6-11.3c-0.5-3.7-3.2-6.5-6.6-7.8c-1-0.4-2.1-0.6-3.1-0.7
	c-2-0.4-1.5-0.1-0.5,1.2c0.1,0.1,0.1,1.6,0.4,0.5c-0.2,0.3-0.1,0.2,0.2-0.2c-2.1,1.4-3.1,0-3.1-4.4c-4.9,2.9-1.1,11,3.9,8.1
	c5.7-3.5,3.4-13.9-3.8-12c-5.1,1.3-8.4,8.7-4.5,12.9c2.3,2.6,5.4,1.8,8.1,3.3c0.4,0.2,0.3,0.8,0.4,0.4c0.1,0.9,0.1,0.5-0.1,0.6
	c-1.2,0.7-2.1,0.9-3.5,0.7c-0.7-0.1-1.6-0.6-2.2-0.7c0,0,0.3,0.2,0.2,0.3c-0.2,0.2-0.2,0,0-0.6c-0.4,0.6-0.8,1.1-1.2,1.7
	c0-0.1,2.5,0,2.3,0c1.9,0.6,1.9-0.4,0.3-2.8c0.2-2.8-0.1-3.6-1.1-2.6c-0.3,0-0.5,0.4-0.1,0.1C106.4,21.6,110.3,29.8,115.3,26.8
	L115.3,26.8z M74.9,59.3c0.3-1.8,0.5-3.7-0.5-5.3c-1.8-3.1-5.6-3.1-8.1-0.9c-2.1,1.7-4.1,4.2-4.1,7.1c0,2.9,2.3,5.5,5,6.4
	c6,1.9,12.2-4,12.4-9.9c0.2-4.4-3.7-8.5-8.2-8.4c-1.6,0.1-3.2,0.6-4.5,1.4c-0.7,0.4-1.8,1.1-2.3,1.8c0.2-0.3,0.2,0.1,0-0.1
	c-0.4,0.2-0.2,0.2,0.5-0.1c0.3-0.2,0.7-0.2,1.1-0.1c0.6,0.1,1.3,0.5,1.7,0.8c0.1,0.1,0.6,0.8,0.2,0.3c0,0,0.3,0.9,0.2,0.5
	c0-0.2-0.2-0.8-0.1-0.1s0,0.2,0,0.1c0-0.6,0,0.4-0.1,0.5c-0.6,1.6-0.5,0.7-3.3,0.5c-2.8-0.2-3.5,0.4-3-2c-0.5,2.4,0.7,4.9,3.1,5.5
	c2.2,0.6,5.1-0.7,5.5-3.1c0.5-2.7-0.5-5.3-3.1-6.6c-2.6-1.4-5.9-0.8-7.4,1.8c-2.1,3.6-0.2,9.3,4,10.4c2.7,0.7,4.7-0.5,6.8-2.1
	c0.3-0.2,0.8-0.5,0.8-0.6c0.3-0.1,0.3-0.1-0.2,0c-0.3,0-0.5,0-0.7-0.2l-0.3-0.2c0.2-0.2,1,1.7,0-0.1c0.4,0.7-0.1-1,0,0.1
	c-0.1-0.5,0.2-1-0.1-0.3c0.2-0.3-1.4,1.7-1.5,1.4c0-0.1,0.7-0.1,0.8,0c0.4,0.1,0.9,0.7,0.4,0.2c0.8,1,1,2,0.6,3
	c0.3,0.2,0.4,0.2,0.6-0.1c0.2-0.2,0.4-0.5,0.7-0.7c1.1-0.9,0.6-0.8-1.5,0.2c-0.8-0.2-1.5-0.4-2.3-0.6c-2.1-1-1.8-4.4-1.8-2.4
	c0,0.6,0.2-1.2,0.1-0.5c-0.4,2.4,0.7,4.9,3.1,5.5C71.6,63.1,74.5,61.7,74.9,59.3L74.9,59.3z M162.6,56.3c-0.2-0.5-0.4-0.9-0.6-1.4
	c0.5,1.2,0-0.2-0.1-0.4c-0.5-1.1,0,0.6-0.2,1.2c-0.7,0.9-1.4,1.8-2.1,2.7c0,0,0,0,0.1,0c-0.8,0.2-1.5,0.4-2.3,0.6h0.1
	c-0.8-0.2-1.5-0.4-2.3-0.6c0.3,0.2,0.2,0.1-0.3-0.3c0.3,0.2,0.5,0.5,0.7,0.7c0.4,0.4,0.8,0.8,1.1,1.2s0.4,0.5,0.7,0.8
	c0.6,0.8,0.3,1.1,0.4,0.1c0-0.8,0.6-2.3,1.5-2.5c-0.1,0,0.9-0.1,0.8,0c0.1-0.3-2-1.2-1.6-1.9c0.1-0.1-0.2,1.5,0.1,0.4
	c-0.1,0.5-0.2,0.5-0.4,0.7c0.2-0.3,1-0.7,0.1-0.1c0.7-0.4-0.6,0.1-0.6,0.1c-0.5-0.1-0.5-0.1,0.1,0c-0.2,0-0.2,0,0.1,0.1
	c0.6,0.4,1.1,0.9,1.7,1.4c1.1,0.8,2.3,1.2,3.7,1.3c4.8,0.1,7.6-5.2,6.3-9.4c-0.9-3-3.9-4.4-6.9-3.5c-3.1,0.9-4.8,3.9-4.1,7.1
	c0.5,2.4,3.3,3.8,5.5,3.1c2.5-0.7,3.6-3.1,3.1-5.5c0.1,0.5,0.3,1.3,0,1.8c-1,0.1-2,0.1-3,0.2c-1.7,1.1-2.8,1-3.2-0.2
	c-0.2-0.4-0.2-1.6-0.2-0.6c0-0.6-0.1-0.8-0.1-0.2c0-0.6,0.8-1.3,1.9-1.7c0.8-0.3,1.4,0.4,2.1,0.3c-0.1,0-0.4-0.4-0.2-0.1
	c0.3,0.4-0.5-0.4-0.5-0.4c-0.5-0.4-1-0.8-1.4-1.1c-1.3-0.9-3-1.5-4.6-1.6c-5.5-0.2-9.2,5.1-8.1,10.2c1.4,6.4,9.7,11.2,15.1,6.2
	c4.7-4.4-0.9-11.9-5.1-14.5c-1.8-1.1-4.3-0.8-5.8,0.7c-1.4,1.4-1.5,3.3-1.1,5c0.4,1.5,1.1,3,1.8,4.4c1.1,2.2,4.2,2.8,6.2,1.6
	C163.2,61.2,163.7,58.5,162.6,56.3L162.6,56.3z M90.2,47.2c-5.1-3.7-12.4-3.2-15.2,3c-2.1,4.6-0.6,10.3,3.5,13.3
	c9.1,6.6,20.4,1.2,27.9-5c9.6-8,14.3-23.3,3.5-32.6c-4.4-3.7-11-4.5-14.8,0.3C91,31.4,94,37.5,98.7,40.9c3.9,2.9,7.6-3.6,3.8-6.5
	c-1.8-0.8-2-1.8-0.7-2.9c0.4-1.6,1.2-1.8,2.4-0.6c1.2,0.4,2.5,2.4,3.1,3.4c1.8,3,1.7,6.3,0.6,9.6c-1.6,4.7-4.9,7.9-8.8,10.8
	c-3.4,2.5-6.9,4.5-11.3,4.1c-1.5-0.1-3.4-0.4-4.6-1.3c-3.4-2.5-0.9-7.1,3.3-4C90.3,56.6,94.1,50,90.2,47.2L90.2,47.2z M141.9,53.2
	c1.7-1.3,4.4-2,4.9,0.8c0.2,1.1-0.4,2.1-1.1,2.8c-1.2,1.2-3.4,1.5-5.1,1.6c-4.3,0.4-7.9-1.6-11.3-4.1c-3.9-2.9-7.2-6.1-8.8-10.8
	c-1-2.9-1.3-6.1,0.2-8.9c0.7-1.3,2.1-3.4,3.5-4c0.5-0.2,1-0.5,1.5-0.7c2.3,1.6,2.3,3,0.2,4.2c-3.8,2.8-0.1,9.3,3.8,6.5
	c4.7-3.4,7.8-9.5,3.6-14.7c-3.9-4.9-10.5-4-14.8-0.3c-10.7,9.3-6.1,24.6,3.5,32.6c7.5,6.2,18.7,11.7,27.9,5c4.1-3,5.6-8.7,3.5-13.3
	c-2.8-6.2-10.1-6.7-15.2-3C134.2,49.5,138,56,141.9,53.2L141.9,53.2z"/>
</svg>
