<svg xmlns="http://www.w3.org/2000/svg" viewBox="0 0 98.64 69.96"><defs><style>.cls-1{fill:#fff;}</style></defs><title>white_rd2</title><g id="Layer_2" data-name="Layer 2"><g id="Layer_1-2" data-name="Layer 1"><path class="cls-1" d="M63,21a6.62,6.62,0,0,0-.16-.71,17,17,0,0,0-.54-1.75c-.51-1.54-1-2.54-.87-3.34s2.6-3.21,2-4.7c-.2-.51-1.13-.8-1.57-.8a6.12,6.12,0,0,0-3.08,1.48,2.5,2.5,0,0,0-.6-.12,2.16,2.16,0,0,0-1.79.84,2.77,2.77,0,0,0-4.06-.46c-1.13.74-.06,2.6,1,1.8.48-.37,1.24-.57,1.38.23a.93.93,0,0,1-.31.8,2.15,2.15,0,0,1-.53.36,6.36,6.36,0,0,1-2.29.14,4.18,4.18,0,0,1-1.79-.65A6.46,6.46,0,0,1,47.38,11a3.19,3.19,0,0,1,.06-2.54,3.42,3.42,0,0,1,.95-1.19.92.92,0,0,1,.46-.15c.79,0,.65.86.06,1.2-1.07.8,0,2.09,1.07,1.29,1.32-1,2.36-2.38,1.18-3.86a3,3,0,0,0-2.51-1.27c0-.26,0,0-.07-.27a2.77,2.77,0,0,0-1.79-2C47,1,46.61,0,45.32,0s-1.65,1.05-1.25,2.2a3,3,0,0,0-2,2.38,2.45,2.45,0,0,0-2.4.91c-1.15,1.48-.31,3.22,1,4.19,1.1.83,2.28-1.26,1.07-1.85-.21-.1-.39-.23-.42-.43a.59.59,0,0,1,.9-.57,3,3,0,0,1,.87,1,3.22,3.22,0,0,1,.17,2.74,6.46,6.46,0,0,1-2.48,3.08,4.54,4.54,0,0,1-3.18,1.17,2.54,2.54,0,0,1-1.29-.37c-1-.71-.25-2,.93-1.14s2.14-1,1-1.8a2.76,2.76,0,0,0-4.12.55,2.25,2.25,0,0,0-1.73-.81,2.8,2.8,0,0,0-.7.14,3.23,3.23,0,0,0-.63-.47c-.73-.4-2.83-1.71-3.58-.48s.05,2,1.76,4.2c1.23,1.56,2.47,7.68,2.47,12.35A60.42,60.42,0,0,1,28.4,45.2a2,2,0,0,0,1.91,2.68H57.87a2,2,0,0,0,1.9-1.34C60.91,43.36,63.61,35,63.61,27A25.86,25.86,0,0,0,63,21ZM45.26,11.14A7.84,7.84,0,0,0,47.59,15H42.49l.37-.29A8,8,0,0,0,45.26,11.14Z"/><path class="cls-1" d="M73.14,68.7a.87.87,0,0,0,.27.18,1.72,1.72,0,0,0,1.4.12,2.09,2.09,0,0,0,1.28-1.71A1.52,1.52,0,0,0,75,65.63a.26.26,0,0,1-.21-.25.3.3,0,0,1,.16-.31,3.49,3.49,0,0,1,4,.46,7.08,7.08,0,0,1,.78.76,5,5,0,0,1,.48.31h0a.91.91,0,0,0,1.06,0c3.58-2.55,6.53-5.78,6.37-9.48-.21-5-4.71-10.15-8.51-15.23s3.38-7.36,2.94-6.7c-1.33,2-1.73,3.07-1.2,3.35.71.38,1.29-1.55,3.61-1.05.15,0,4.26.82,5.89,2.92a1.25,1.25,0,0,0,2.23-.52,2.68,2.68,0,0,0-.62-2.67c-2.12-2.15-4.23-1.17-4.23-3.13,0-.87,1.31-2.16,3.11-.94.73.5.61,1.77,1.36,2.08s2.26-.26,2.76,1c0,.09.06.17.09.25a1.32,1.32,0,0,0,2.37.59,6.54,6.54,0,0,0,1.25-4c0-1.66,0-2.08-2.82-2-3.56.15-5-3-5.26-4a4,4,0,0,0-1.93-2c-1.33-.72-7.14-3-10.8-5.28-.51-.31-1.08.27-.84.86a24.82,24.82,0,0,0,1.17,2.49c.28.52-.16,1.17-.69,1a9.73,9.73,0,0,0-2.62-.52c-.85-.05-.88.76-.43,1.18l0,0A.68.68,0,0,1,74,26.19a24.84,24.84,0,0,0-4.84.57A.76.76,0,0,0,69,28.12c.91.55,2.46.55,2.64,1,.35,1-3.41,2-3.35,12.42,0,.54,1.34,10.79-6.77,10.95,0,0-26.23-.1-35-.1a2.24,2.24,0,0,1-2-.86.9.9,0,0,1-.16-.19c-.45-.73-3.3-5.16-7.43-6.13-3.86-.9-15.59-2.68-15.59-2.68-.71,0-1.63.1-1.29,2.1.11.62.2.56,1.29,3.9.39,1.2,1.5.27,2.15,1.25C4.68,51.58,5.41,55,6,55.68c1,1.12,2-1.9,6.33,9.57l.91.58a3.66,3.66,0,0,1,2.7.79c.56.41,1.33,1.32,1.83,1.79a8.93,8.93,0,0,0,1.26,1.11,2.19,2.19,0,0,0,2,.35,2,2,0,0,0,1.29-1.6,1.43,1.43,0,0,0-1.1-1.55.25.25,0,0,1-.22-.23.28.28,0,0,1,.16-.29,3.73,3.73,0,0,1,4,.43c.56.41,1.33,1.32,1.83,1.79a8.85,8.85,0,0,0,1.24,1.08,2.25,2.25,0,0,0,2,.38,2,2,0,0,0,1.29-1.6,1.43,1.43,0,0,0-1.1-1.55.25.25,0,0,1-.22-.23.28.28,0,0,1,.16-.29,3.73,3.73,0,0,1,4,.43c.56.41,1.32,1.32,1.83,1.79a8.92,8.92,0,0,0,1.26,1.11,2.19,2.19,0,0,0,2,.35,2,2,0,0,0,1.29-1.6,1.43,1.43,0,0,0-1.1-1.55.25.25,0,0,1-.22-.23.28.28,0,0,1,.16-.29,3.73,3.73,0,0,1,4,.43c.56.41,1.32,1.32,1.83,1.79a9,9,0,0,0,1.4,1.21,1.94,1.94,0,0,0,1.73.25,2,2,0,0,0,1.29-1.6,1.43,1.43,0,0,0-1.1-1.55.25.25,0,0,1-.22-.23.28.28,0,0,1,.16-.29,3.73,3.73,0,0,1,4,.43c.56.41,1.33,1.32,1.83,1.79A8.94,8.94,0,0,0,55.7,69.5a2.19,2.19,0,0,0,2,.35,2,2,0,0,0,1.29-1.6,1.43,1.43,0,0,0-1.1-1.55.25.25,0,0,1-.22-.23.28.28,0,0,1,.16-.29,3.73,3.73,0,0,1,4,.43c.56.41,1.33,1.32,1.83,1.79a8.85,8.85,0,0,0,1.24,1.08,2.25,2.25,0,0,0,2,.38,2,2,0,0,0,1.29-1.6A1.43,1.43,0,0,0,67,66.7a.25.25,0,0,1-.22-.23.28.28,0,0,1,.16-.29,3.73,3.73,0,0,1,4,.43c.56.41,1.33,1.32,1.83,1.79Z"/><path class="cls-1" d="M24,41.19l-6.65-1.08c-1.19-.17-1.54-.89-1.18-1.69a28,28,0,0,0,2.69-12.75c0-5.31-1-8-1.82-9.77A1.22,1.22,0,0,1,18.2,14.2h6.07a1.32,1.32,0,0,1,.95.4c1,1,3.1,3.5,3.1,11.08a33.31,33.31,0,0,1-3.18,14.83A1.28,1.28,0,0,1,24,41.19Z"/></g></g></svg>