<?xml version="1.0" encoding="utf-8"?>
<!-- Generator: Adobe Illustrator 22.0.1, SVG Export Plug-In . SVG Version: 6.00 Build 0)  -->
<svg version="1.1" id="Layer_1" xmlns="http://www.w3.org/2000/svg" xmlns:xlink="http://www.w3.org/1999/xlink" x="0px" y="0px"
	 viewBox="0 0 284 213.5" style="enable-background:new 0 0 284 213.5;" xml:space="preserve">
<style type="text/css">
	.st0{fill:#9A0000;}
</style>
<g>
	<path class="st0" d="M229.6,125.9c-3.9,4.9-3.8,9.9,0.3,14c3.6,3.6,7.2,7,11.1,10.3c4.7,4,6.3,9.1,6.3,15.1
		c-0.2,20.1-10.7,35.6-30.3,43.5c-10.6,4.3-21.6,4.9-32.4,0.7c-2.4-0.9-4.6-2.5-6.7-4.1c-1.3-1-2.4-1.2-3.7-0.1
		c-9.3,8.1-27.1,9.2-37.3,2.3c-1.1-0.7-2.1-1.6-3-2.6c-1.4-1.5-2.7-1.5-4.3-0.3c-11.6,9.4-24.3,9.2-37.4,3.9
		c-1.9-0.8-3.6-2.4-5.2-3.8c-1.1-1-2.1-1.4-3.2-0.2c-4.9,5.6-11.7,6.9-18.5,7.4c-5.4,0.4-11,0.7-16.3-1.6
		c-8.6-3.8-14.3-10.4-17.9-18.8c-3-6.9-5.2-14.2-7.5-21.5c-0.7-2-1.4-3.4-3.6-3.9c-3.4-0.9-6-3.2-8.2-5.9c-4.6-5.6-7.9-11.8-10-18.7
		c-2.4-8.1,0.5-16.7,7.2-21.2c0.7-0.5,1.7-0.4,2.6-0.6c-0.2,0.9-0.3,1.8-0.6,2.6c-1.5,4.3-4,8.3-2.6,13.1c1.7,6,6.6,8.8,11.9,10.3
		c5.4,1.6,11,2.4,16.6,3.4c3.5,0.6,7.2,0.5,10.6,1.3c3.1,0.7,6.2,1.9,9,3.4c3.4,1.8,6.4,4.3,9.8,6.2c1.7,1,3.9,1.7,5.9,1.7
		c23,0.1,45.9,0.1,68.9,0.2c9.7,0,19.4-0.2,29.1,0.2c15.3,0.7,19.9-8.6,20.8-20.1c0.4-6,0.3-12.1,1-18.1c0.7-6.5,3.1-12.3,8-16.8
		c0.3-0.2,0.4-0.6,0.9-1.3c-1.6-1.1-3-2.2-4.6-3.2c-1.3-0.8-2.7-1.4-2.4-3.3c0.3-2,2-2.2,3.5-2.4c3.9-0.5,7.9-0.9,11.8-1.4
		c0.6-0.1,1.2-0.4,1.8-0.7c-0.2-0.5-0.5-1.1-0.6-1.6c-0.2-0.9-0.7-2-0.3-2.7c0.3-0.6,1.5-1.1,2.3-1c2.3,0.2,4.6,0.8,6.9,1.1
		c0.6,0.1,1.3-0.2,1.9-0.3c-0.1-0.6-0.1-1.2-0.3-1.7c-0.9-1.9-2-3.7-2.8-5.6c-0.3-0.8-0.2-2.2,0.3-2.7c0.7-0.6,2.1-0.8,2.9-0.5
		c10.8,4.4,21.5,8.9,32.2,13.4c3,1.3,5.2,3.3,6.6,6.5c2.6,5.9,7.1,9,13.7,8.9c1.9,0,3.7,0,5.6,0.1c2.1,0.2,3.3,1.4,3.4,3.6
		c0.3,4.5-0.6,8.7-3.4,12.2c-2.3,2.9-6.2,2.7-7.7-0.8c-1.1-2.5-2.8-3.3-5.1-3.1c-3,0.2-4.7-1.1-5.8-3.9c-1.1-2.9-5.3-4-7.6-2.2
		c-0.8,0.6-1.5,1.8-1.5,2.6c0.1,0.8,1,1.9,1.8,2.3c2,1,4.3,1.5,6.3,2.5c4.7,2.3,6.4,5.1,5.9,9c-0.3,1.9-1.1,3.2-2.9,3.9
		c-1.8,0.7-3.4,0.2-4.7-1.1c-4.9-5-11.3-6.5-17.9-7.5c-1.8-0.3-4.1,0.7-5.8,1.7C231.1,130.2,230.1,129.9,229.6,125.9z"/>
	<path class="st0" d="M91.8,41.4c4-3.6,8-4.2,12-1.4c0.9,0.6,1.8,1.7,1.9,2.7c0.1,1.1-0.5,2.6-1.3,3.2c-0.7,0.5-2.3,0.3-3.3-0.1
		c-1.4-0.5-3-1.5-3.8,0.4c-0.8,1.8,0.5,3.1,2,3.5c1.8,0.5,3.9,0.8,5.7,0.5c6.4-0.9,14.1-8.7,15.2-15.1c0.5-3.2-0.5-5.8-2.7-8.1
		c-0.9-1-2.1-1.6-3.2-0.4c-1.2,1.3,0,2,1,2.7c1.7,1.2,1.9,3.2,0.5,4.9c-1.2,1.5-2.9,1.7-4.5,0.3c-1.3-1.2-2.6-2.5-3.4-4.1
		c-2.7-5.1,0.4-10.8,6.2-11.2c1.5-0.1,1.9-0.7,2.6-1.9c1-1.7,2.6-3.1,3.9-4.7c0.5-0.6,0.9-1.4,1.1-2.1c0.3-1.9,0.2-3.9,0.7-5.7
		c0.4-1.6,1.6-2.7,3.6-2.8c2-0.1,3.1,1,3.6,2.7c0.6,1.9,0.7,3.9,1.1,5.9c0.1,0.7,0.3,1.7,0.8,1.9c3.2,1.7,4.7,4.4,4.9,7.8
		c0.2,0.1,0.4,0.3,0.5,0.3c4.7,0.5,7.2,2.4,8.1,6c0.8,3.2-0.9,7.1-4.1,9.5c-1.4,1-2.8,1.4-4.2,0c-1.3-1.3-1.4-3.5-0.2-4.9
		c0.4-0.4,1-0.7,1.2-1.1c0.3-0.8,0.3-1.6,0.5-2.4c-0.9,0-2-0.4-2.5,0c-2.7,1.9-4.2,4.6-3.9,8c0.8,7.9,9.3,17.1,20.2,14.3
		c0.7-0.2,1.3-0.5,1.8-0.9c1.1-0.9,1.9-2,1-3.4c-0.9-1.4-2.2-0.9-3.3-0.2c-1.7,1.1-3.3,1.3-4.7-0.5c-1.2-1.6-0.8-3.4,0.8-4.7
		c3.9-3,8.3-2.7,12.6,1c2.1-1.7,4.4-2.6,7.2-2c0.5,0.1,1.1-0.6,1.6-0.8c2.8-1,5.6-2.3,8.5-2.9c3.1-0.6,5.1,1.4,4.1,4.4
		c-1,3.1-2.8,6-4.8,8.5c-1.3,1.6-1.6,2.8-0.9,4.7c4.1,11.4,6.7,23,6.6,35.2c-0.1,11.8-1.4,23.5-4.5,35c-2.2,8.2-4.6,16.3-7,24.3
		c-1.2,4-2.8,5.1-6.9,5.4c-0.7,0-1.4,0-2.1,0c-26.8,0-53.5,0-80.3,0c-0.4,0-0.8,0-1.2,0c-5.5-0.1-8.2-3.8-6.5-9
		c3.6-11.2,6.7-22.4,8.4-34.1c2.2-14.6,2.6-29.2-0.7-43.7c-1.2-5.3-3.1-10.4-4.9-15.5c-0.5-1.4-1.9-2.4-2.7-3.7
		c-1.2-2-2.7-4-3.4-6.3c-1-3.5,1.3-5.8,4.9-5c1.4,0.3,2.8,0.9,4.1,1.5c2.5,1.2,4.7,2.9,7.7,2.5C88.8,39.5,90.2,40.7,91.8,41.4z
		 M131.9,50.8c-2.2-3.6-4.3-7.1-6.1-10.1c-2.3,3.2-4.8,6.6-7.2,10.1C123,50.8,127.5,50.8,131.9,50.8z"/>
	<path class="st0" d="M45,87.9c-0.1-9.8-1.1-21-5.5-31.6C38.3,53.6,40,51,43,51c6.2-0.1,12.4-0.1,18.6,0.1c1.3,0.1,3,1.3,3.9,2.5
		c4.1,5.3,5.9,11.6,6.9,18c3.3,21.8,1,42.9-7.5,63.3c-1.1,2.7-2.8,3.8-5.7,3.7c-6-0.1-11.9,0-17.9-0.1c-3.8-0.1-5.6-2.6-4.2-6.1
		C42.7,118.7,44.9,104.3,45,87.9z"/>
</g>
</svg>
