<?xml version="1.0" encoding="utf-8"?>
<!-- Generator: Adobe Illustrator 22.0.1, SVG Export Plug-In . SVG Version: 6.00 Build 0)  -->
<svg version="1.1" id="Layer_1" xmlns="http://www.w3.org/2000/svg" xmlns:xlink="http://www.w3.org/1999/xlink" x="0px" y="0px"
	 viewBox="0 0 107.8 76.9" style="enable-background:new 0 0 107.8 76.9;" xml:space="preserve">
<style type="text/css">
	.st0{fill:#F23535;}
</style>
<title>white_rd2</title>
<g id="Layer_2_1_">
	<g id="Layer_1-2">
		<path class="st0" d="M68.2,24.3c0-0.3-0.1-0.5-0.2-0.8c-0.2-0.6-0.3-1.2-0.6-1.9c-0.5-1.6-1.1-2.7-0.9-3.5s2.8-3.4,2.1-5
			c-0.2-0.5-1.2-0.8-1.7-0.8c-1.2,0.2-2.3,0.7-3.3,1.6c-0.2-0.1-0.4-0.1-0.6-0.1c-0.7,0-1.4,0.3-1.9,0.9c-1-1.3-2.8-1.6-4.1-0.6
			c-0.1,0.1-0.1,0.1-0.2,0.2c-1.2,0.8-0.1,2.8,1.1,1.9c0.5-0.4,1.3-0.6,1.5,0.2c0,0.3-0.1,0.6-0.3,0.8c-0.2,0.2-0.4,0.3-0.6,0.4
			c-0.8,0.2-1.6,0.2-2.4,0.1c-0.7-0.1-1.3-0.3-1.9-0.7c-1.2-0.8-2.1-2-2.6-3.3c-0.4-0.9-0.3-1.8,0.1-2.7c0.2-0.5,0.6-0.9,1-1.3
			c0.1-0.1,0.3-0.2,0.5-0.2c0.8,0,0.7,0.9,0.1,1.3c-1.1,0.8,0,2.2,1.1,1.4c1.4-1.1,2.5-2.5,1.3-4.1C55,7.2,54,6.7,52.9,6.8
			c0-0.3,0,0-0.1-0.3c-0.2-1-0.9-1.8-1.9-2.1C51.2,3.1,50.8,2,49.4,2c-1.4,0-1.7,1.1-1.3,2.3c-1.1,0.4-2,1.4-2.1,2.6
			c-1-0.2-1.9,0.2-2.5,1c-1.2,1.6-0.3,3.4,1.1,4.4c1.2,0.9,2.4-1.3,1.1-2c-0.2-0.1-0.4-0.2-0.4-0.5s0.2-0.7,0.5-0.7
			c0.1,0,0.3,0,0.4,0.1c0.4,0.3,0.7,0.6,0.9,1.1c0.5,0.9,0.6,2,0.2,2.9c-0.5,1.3-1.4,2.5-2.6,3.3c-0.9,0.8-2.1,1.3-3.4,1.2
			c-0.5,0-1-0.1-1.4-0.4c-1.1-0.8-0.3-2.1,1-1.2s2.3-1.1,1.1-1.9c-1.2-1.1-3.1-0.9-4.1,0.3c-0.1,0.1-0.2,0.2-0.2,0.3
			c-0.5-0.5-1.1-0.9-1.8-0.9c-0.3,0-0.5,0.1-0.7,0.1c-0.2-0.2-0.4-0.4-0.7-0.5c-0.8-0.4-3-1.8-3.8-0.5s0.1,2.1,1.9,4.5
			c1.3,1.7,2.6,8.1,2.6,13.1c-0.2,6.6-1.4,13.1-3.5,19.3c-0.4,1.1,0.2,2.3,1.3,2.7c0.2,0.1,0.5,0.1,0.8,0.1H63c0.9,0,1.7-0.6,2-1.4
			c1.2-3.4,4.1-12.2,4.1-20.7C68.8,28.5,68.6,26.4,68.2,24.3z M49.3,13.8c0.4,1.6,1.3,3,2.5,4.1h-5.4l0.4-0.3
			C48,16.6,48.9,15.3,49.3,13.8z"/>
		<path class="st0" d="M81.4,74.6c0.1-0.1,0.6-0.6,0.7-1.4s-0.4-1.5-1.2-1.8c-0.1,0-0.2-0.1-0.2-0.3c0-0.1,0-0.3,0.2-0.3
			c1.4-0.8,3.1-0.6,4.2,0.5c0.3,0.2,0.6,0.5,0.8,0.8c0.2,0.1,0.3,0.2,0.5,0.3c0.3,0.2,0.8,0.2,1.1,0c3.8-2.7,6.9-6.1,6.8-10.1
			c-0.2-5.3-5-10.8-9-16.2s3.6-7.8,3.1-7.1c-1.4,2.1-1.8,3.3-1.3,3.6c0.8,0.4,1.4-1.6,3.8-1.1c0.2,0,4.5,0.9,6.2,3.1
			c0.4,0.6,1.3,0.7,1.9,0.3c0.3-0.2,0.4-0.5,0.5-0.8c0.3-1,0.1-2.1-0.7-2.8c-2.2-2.3-4.5-1.2-4.5-3.3c0-0.9,1.4-2.3,3.3-1
			c0.8,0.5,0.6,1.9,1.4,2.2s2.4-0.3,2.9,1.1c0,0.1,0.1,0.2,0.1,0.3c0.1,0.8,0.8,1.3,1.6,1.2c0.4-0.1,0.7-0.3,0.9-0.6
			c0.9-1.2,1.4-2.7,1.3-4.2c0-1.8,0-2.2-3-2.1c-3.8,0.2-5.3-3.2-5.6-4.2c-0.4-0.9-1.1-1.7-2-2.1c-1.4-0.8-7.6-3.2-11.5-5.6
			c-0.5-0.3-1.1,0.3-0.9,0.9c0.4,0.9,0.8,1.8,1.2,2.6c0.3,0.6-0.2,1.2-0.7,1.1c-0.9-0.3-1.8-0.5-2.8-0.6c-0.9-0.1-0.9,0.8-0.5,1.3
			c0.4,0.1,0.6,0.6,0.5,1s-0.6,0.6-1,0.5c-1.7,0-3.4,0.2-5.1,0.6c-0.4,0.1-0.6,0.6-0.5,1c0.1,0.2,0.2,0.3,0.3,0.4
			c1,0.6,2.6,0.6,2.8,1.1c0.4,1.1-3.6,2.1-3.6,13.2c0,0.6,1.4,11.4-7.2,11.6c0,0-27.8-0.1-37.1-0.1c-0.8,0.1-1.6-0.3-2.1-0.9
			c-0.1-0.1-0.1-0.1-0.2-0.2c-0.5-0.8-3.5-5.5-7.9-6.5c-4.1-1-16.5-2.8-16.5-2.8c-0.8,0-1.7,0.1-1.4,2.2c0.1,0.7,0.2,0.6,1.4,4.1
			c0.4,1.3,1.6,0.3,2.3,1.3c1.3,1.9,2,5.5,2.7,6.3c1.1,1.2,2.1-2,6.7,10.1l1,0.6c1-0.1,2.1,0.2,2.9,0.8c0.6,0.4,1.4,1.4,1.9,1.9
			c0.4,0.4,0.9,0.8,1.3,1.2c0.6,0.5,1.4,0.6,2.1,0.4c0.7-0.3,1.3-0.9,1.4-1.7c0.1-0.8-0.4-1.5-1.2-1.6c-0.1,0-0.2-0.1-0.2-0.2
			s0.1-0.3,0.2-0.3c1.4-0.7,3-0.5,4.2,0.5c0.6,0.4,1.4,1.4,1.9,1.9c0.4,0.4,0.8,0.8,1.3,1.1c0.6,0.5,1.4,0.6,2.1,0.4
			c0.7-0.3,1.3-0.9,1.4-1.7c0.1-0.8-0.4-1.5-1.2-1.6c-0.1,0-0.2-0.1-0.2-0.2s0.1-0.3,0.2-0.3c1.4-0.7,3-0.5,4.2,0.5
			c0.6,0.4,1.4,1.4,1.9,1.9c0.4,0.4,0.9,0.8,1.3,1.2c0.6,0.5,1.4,0.6,2.1,0.4c0.7-0.3,1.3-0.9,1.4-1.7c0.1-0.8-0.4-1.5-1.2-1.6
			c-0.1,0-0.2-0.1-0.2-0.2s0.1-0.3,0.2-0.3c1.4-0.7,3-0.5,4.2,0.5c0.6,0.4,1.4,1.4,1.9,1.9c0.4,0.5,0.9,0.9,1.5,1.3
			c0.5,0.4,1.2,0.5,1.8,0.3c0.7-0.3,1.3-0.9,1.4-1.7c0.1-0.8-0.4-1.5-1.2-1.6c-0.1,0-0.2-0.1-0.2-0.2s0.1-0.3,0.2-0.3
			c1.4-0.7,3-0.5,4.2,0.5c0.6,0.4,1.4,1.4,1.9,1.9c0.4,0.4,0.8,0.8,1.3,1.1c0.6,0.5,1.4,0.6,2.1,0.4c0.7-0.3,1.3-0.9,1.4-1.7
			c0.1-0.8-0.4-1.5-1.2-1.6c-0.1,0-0.2-0.1-0.2-0.2s0.1-0.3,0.2-0.3c1.4-0.7,3-0.5,4.2,0.5c0.6,0.4,1.4,1.4,1.9,1.9
			c0.4,0.4,0.8,0.8,1.3,1.1c0.6,0.5,1.4,0.6,2.1,0.4c0.7-0.3,1.3-0.9,1.4-1.7c0.1-0.8-0.5-1.5-1.3-1.7c-0.1,0-0.2-0.1-0.2-0.2
			s0.1-0.3,0.2-0.3c1.4-0.7,3-0.5,4.2,0.5c0.2,0.3,0.5,0.6,1,0.9C78.2,75.2,80.3,75.6,81.4,74.6z"/>
		<path class="st0" d="M26.8,45.7l-7.1-1.1c-1.3-0.2-1.6-0.9-1.3-1.8c2-4.2,3-8.9,2.9-13.5c0-5.6-1.1-8.5-1.9-10.4
			c-0.3-0.7,0-1.4,0.7-1.7c0.2-0.1,0.4-0.1,0.6-0.1h6.4c0.4,0,0.7,0.2,1,0.4c1.1,1.1,3.3,3.7,3.3,11.8C31.5,34.7,30.3,40,28,45
			C27.8,45.4,27.3,45.7,26.8,45.7z"/>
	</g>
</g>
</svg>
