<svg id="Layer_1" data-name="Layer 1" xmlns="http://www.w3.org/2000/svg" viewBox="0 0 61.12 82.29"><defs><style>.cls-1{fill:#faf0f0;}</style></defs><title>rightArrow</title><path class="cls-1" d="M110.35,126.33c1.7,2.5,4.3,5,7.6,3.9,4.6-1.5,4.4-8.2,3.4-12-1.2-4.2-5.1-6.2-9.3-5.3s-6.6,4.5-7.2,8.5c-1.2,7.6,3.8,16.6,12.5,14.6a9.92,9.92,0,0,0,7.2-7.2,16.68,16.68,0,0,0,.5-3.1c.2-2,0-1.5-1.2-.4-.1.1-1.6.2-.5.4-.3-.2-.2-.1.2.2-1.6-2-.2-3.1,4.1-3.4-3.3-4.7-11.1-.2-7.8,4.5,3.9,5.4,14.1,2.3,11.7-4.8-1.7-5-9.3-7.7-13.2-3.5-2.4,2.5-1.4,5.5-2.6,8.3-.2.4-.8.4-.4.4-.9.2-.5.1-.6-.1a4.59,4.59,0,0,1-1-3.4c0-.7.5-1.6.5-2.2,0,0-.2.3-.3.2s0-.2.6,0c-.6-.4-1.2-.7-1.8-1.1a21.51,21.51,0,0,1,.2,2.3c-.4,1.9.6,1.9,2.8.1,2.8,0,3.6-.4,2.5-1.3,0-.3-.4-.5-.1-.1-3.3-4.8-11.1-.3-7.8,4.5Z" transform="translate(-70.79 -83.38)"/><path class="cls-1" d="M91.85,99.53c3.7-5.1,3.2-12.4-3-15.2a11,11,0,0,0-13.3,3.5c-6.6,9.1-1.2,20.4,5,27.9,8,9.6,23.3,14.3,32.6,3.5,3.7-4.4,4.5-11-.3-14.8-5.2-4.1-11.3-1.1-14.7,3.6-2.9,3.9,3.6,7.6,6.5,3.8a2,2,0,0,1,1.46-1.54,2.08,2.08,0,0,1,2.24,1.44,2.3,2.3,0,0,1-.2,1.8,11.3,11.3,0,0,1-3.4,3.1c-3,1.8-6.3,1.7-9.6.6-4.7-1.6-7.9-4.9-10.8-8.8-2.5-3.4-4.5-6.9-4.1-11.3a9.1,9.1,0,0,1,1.3-4.6c2.5-3.4,7.1-.9,4,3.3C82.45,99.63,89.05,103.43,91.85,99.53Z" transform="translate(-70.79 -83.38)"/><path class="cls-1" d="M83.85,153.23c1.3,1.7,2,4.4-.8,4.9a3.25,3.25,0,0,1-2.8-1.1c-1.2-1.2-1.5-3.4-1.6-5.1-.4-4.3,1.6-7.9,4.1-11.3,2.9-3.9,6.1-7.2,10.8-8.8,2.9-1,6.1-1.3,8.9.2,1.3.7,3.4,2.1,4,3.5.2.5.5,1,.7,1.5-1.6,2.3-3,2.3-4.2.2-2.8-3.8-9.3-.1-6.5,3.8,3.4,4.7,9.5,7.8,14.7,3.6,4.9-3.9,4-10.5.3-14.8-9.3-10.7-24.6-6.1-32.6,3.5-6.2,7.5-11.7,18.7-5,27.9a11,11,0,0,0,13.3,3.5c6.2-2.8,6.7-10.1,3-15.2-2.6-4-9.1-.2-6.3,3.7Z" transform="translate(-70.79 -83.38)"/></svg>