<?xml version="1.0" encoding="utf-8"?>
<!-- Generator: Adobe Illustrator 22.0.1, SVG Export Plug-In . SVG Version: 6.00 Build 0)  -->
<svg version="1.1" id="Layer_1" xmlns="http://www.w3.org/2000/svg" xmlns:xlink="http://www.w3.org/1999/xlink" x="0px" y="0px"
	 viewBox="0 0 61.1 82.3" style="enable-background:new 0 0 61.1 82.3;" xml:space="preserve">
<style type="text/css">
	.st0{fill:#F23535;}
</style>
<title>rightArrow</title>
<path class="st0" d="M39.6,43c1.7,2.5,4.3,5,7.6,3.9c4.6-1.5,4.4-8.2,3.4-12c-1.2-4.2-5.1-6.2-9.3-5.3S34.7,34,34.1,38
	c-1.2,7.6,3.8,16.6,12.5,14.6c3.5-0.9,6.3-3.7,7.2-7.2c0.3-1,0.4-2.1,0.5-3.1c0.2-2,0-1.5-1.2-0.4c-0.1,0.1-1.6,0.2-0.5,0.4
	c-0.3-0.2-0.2-0.1,0.2,0.2c-1.6-2-0.2-3.1,4.1-3.4c-3.3-4.7-11.1-0.2-7.8,4.5C53,49,63.2,46,60.8,38.8c-1.7-5-9.3-7.7-13.2-3.5
	c-2.4,2.5-1.4,5.5-2.6,8.3c-0.2,0.4-0.8,0.4-0.4,0.4c-0.9,0.2-0.5,0.1-0.6-0.1c-0.8-1-1.1-2.2-1-3.4c0-0.7,0.5-1.6,0.5-2.2
	c0,0-0.2,0.3-0.3,0.2s0-0.2,0.6,0c-0.6-0.4-1.2-0.7-1.8-1.1c0.1,0.8,0.2,1.5,0.2,2.3c-0.4,1.9,0.6,1.9,2.8,0.1
	c2.8,0,3.6-0.4,2.5-1.3c0-0.3-0.4-0.5-0.1-0.1C44.1,33.7,36.3,38.2,39.6,43L39.6,43z"/>
<path class="st0" d="M21.1,16.2c3.7-5.1,3.2-12.4-3-15.2C13.4-1.1,7.8,0.3,4.8,4.5c-6.6,9.1-1.2,20.4,5,27.9
	c8,9.6,23.3,14.3,32.6,3.5c3.7-4.4,4.5-11-0.3-14.8C36.9,17,30.8,20,27.4,24.7c-2.9,3.9,3.6,7.6,6.5,3.8c0.2-0.8,0.7-1.3,1.5-1.5
	c1-0.1,1.9,0.5,2.2,1.4c0.2,0.6,0.1,1.3-0.2,1.8c-0.9,1.3-2.1,2.3-3.4,3.1c-3,1.8-6.3,1.7-9.6,0.6c-4.7-1.6-7.9-4.9-10.8-8.8
	c-2.5-3.4-4.5-6.9-4.1-11.3c0-1.6,0.5-3.2,1.3-4.6c2.5-3.4,7.1-0.9,4,3.3C11.7,16.3,18.3,20.1,21.1,16.2z"/>
<path class="st0" d="M13.1,69.8c1.3,1.7,2,4.4-0.8,4.9c-1.1,0.1-2.1-0.3-2.8-1.1c-1.2-1.2-1.5-3.4-1.6-5.1
	c-0.4-4.3,1.6-7.9,4.1-11.3c2.9-3.9,6.1-7.2,10.8-8.8c2.9-1,6.1-1.3,8.9,0.2c1.3,0.7,3.4,2.1,4,3.5c0.2,0.5,0.5,1,0.7,1.5
	c-1.6,2.3-3,2.3-4.2,0.2c-2.8-3.8-9.3-0.1-6.5,3.8c3.4,4.7,9.5,7.8,14.7,3.6c4.9-3.9,4-10.5,0.3-14.8c-9.3-10.7-24.6-6.1-32.6,3.5
	c-6.2,7.5-11.7,18.7-5,27.9c3.1,4.1,8.6,5.6,13.3,3.5c6.2-2.8,6.7-10.1,3-15.2C16.8,62.1,10.3,65.9,13.1,69.8L13.1,69.8z"/>
</svg>
