<?xml version="1.0" encoding="utf-8"?>
<!-- Generator: Adobe Illustrator 22.0.1, SVG Export Plug-In . SVG Version: 6.00 Build 0)  -->
<svg version="1.1" id="Layer_1" xmlns="http://www.w3.org/2000/svg" xmlns:xlink="http://www.w3.org/1999/xlink" x="0px" y="0px"
	 viewBox="0 0 61.1 82.3" style="enable-background:new 0 0 61.1 82.3;" xml:space="preserve">
<style type="text/css">
	.st0{fill:#F23535;}
</style>
<title>rightArrow</title>
<path class="st0" d="M37.1,42.9c1.6,2.4,4.1,4.7,7.2,3.7c4.3-1.4,4.1-7.7,3.2-11.3c-1.1-4-4.8-5.8-8.8-5c-4,0.8-6.2,4.1-6.8,7.9
	c-1.1,7.2,3.6,15.7,11.8,13.8c3.3-0.8,5.9-3.5,6.8-6.8c0.3-0.9,0.4-2,0.5-2.9c0.2-1.9,0-1.4-1.1-0.4c-0.1,0.1-1.5,0.2-0.5,0.4
	c-0.3-0.2-0.2-0.1,0.2,0.2c-1.5-1.9-0.2-2.9,3.9-3.2c-3.1-4.4-10.5-0.2-7.4,4.2c3.7,5.1,13.3,2.3,11-4.5c-1.6-4.7-8.8-7.3-12.4-3.3
	c-2.3,2.4-1.3,5.2-2.5,7.8c-0.2,0.4-0.8,0.4-0.4,0.4c-0.8,0.2-0.5,0.1-0.6-0.1c-0.8-0.9-1-2.1-0.9-3.2c0-0.7,0.5-1.5,0.5-2.1
	c0,0-0.2,0.3-0.3,0.2c-0.1-0.1,0-0.2,0.6,0c-0.6-0.4-1.1-0.7-1.7-1c0.1,0.8,0.2,1.4,0.2,2.2c-0.4,1.8,0.6,1.8,2.6,0.1
	c2.6,0,3.4-0.4,2.4-1.2c0-0.3-0.4-0.5-0.1-0.1C41.3,34.1,34,38.4,37.1,42.9L37.1,42.9z"/>
<path class="st0" d="M19.6,18.6c3.5-4.8,3-11.7-2.8-14.3c-4.4-2-9.7-0.7-12.5,3.3C-2,16.2,3.1,26.8,9,33.9c7.5,9.1,22,13.5,30.7,3.3
	c3.5-4.1,4.2-10.4-0.3-14c-4.9-3.9-10.7-1-13.9,3.4c-2.7,3.7,3.4,7.2,6.1,3.6c0.2-0.8,0.7-1.2,1.4-1.4c0.9-0.1,1.8,0.5,2.1,1.3
	c0.2,0.6,0.1,1.2-0.2,1.7c-0.8,1.2-2,2.2-3.2,2.9c-2.8,1.7-5.9,1.6-9.1,0.6c-4.4-1.5-7.4-4.6-10.2-8.3c-2.4-3.2-4.2-6.5-3.9-10.7
	c0-1.5,0.5-3,1.2-4.3c2.4-3.2,6.7-0.8,3.8,3.1C10.8,18.7,17,22.3,19.6,18.6z"/>
<path class="st0" d="M14.1,69c1.2,1.6,1.9,4.1-0.8,4.6c-1,0.1-2-0.3-2.6-1c-1.1-1.1-1.4-3.2-1.5-4.8c-0.4-4.1,1.5-7.4,3.9-10.7
	c2.7-3.7,5.8-6.8,10.2-8.3c2.7-0.9,5.8-1.2,8.4,0.2c1.2,0.7,3.2,2,3.8,3.3c0.2,0.5,0.5,0.9,0.7,1.4c-1.5,2.2-2.8,2.2-4,0.2
	c-2.6-3.6-8.8-0.1-6.1,3.6c3.2,4.4,9,7.4,13.9,3.4c4.6-3.7,3.8-9.9,0.3-14c-8.8-10.1-23.2-5.8-30.7,3.3c-5.8,7.1-11,17.6-4.7,26.3
	c2.9,3.9,8.1,5.3,12.5,3.3c5.8-2.6,6.3-9.5,2.8-14.3C17.6,61.8,11.5,65.3,14.1,69L14.1,69z"/>
</svg>
