<svg id="Layer_2" data-name="Layer 2" xmlns="http://www.w3.org/2000/svg" viewBox="0 0 158.62 501.42">
	<defs>
		<style>
			.cls-1{fill:none;stroke:#9a0000;stroke-miterlimit:10;stroke-width:3px;}
			.cls-2{fill:#9a0000;}
		</style>
		<link rel="stylesheet" href="../css/main-styles.css"
			  xmlns="http://www.w3.org/1999/xhtml"/>

	</defs>
	<title>sidebar</title>
	<path id="base" class="cls-1" d="M628.12,261.9a8.89,8.89,0,0,0-10.7-5.31,7.52,7.52,0,0,0-8.19-4.1,12.78,12.78,0,0,0-1-5.59c-2.6-5.6-8.6-5.2-12.5-1.2-3.4,3.3,1.9,8.6,5.3,5.2.6-.6.4,3.8-.3,4.7a4.22,4.22,0,0,1-3.3,1.6c-3.3.1-6.2-4-7.9-6.5a22.18,22.18,0,0,1-3.6-11.2,16.59,16.59,0,0,1,1.6-8.5c.4-.9,1.4-3.1,2-2.6.9.7-1.4,3.9-1.7,4.2-3.2,3.6,2.1,8.9,5.3,5.3,3.6-4,5.7-10.5,2.1-15.2s-8.8-2.7-12,1.2a20.51,20.51,0,0,0-1.3,1.8V169.4a11.93,11.93,0,0,0,10.8,2.6,9.1,9.1,0,0,0,6.9-6.6,5.07,5.07,0,0,0,.11-.68c3.2,2.34,10.15,1,9.49-3.72-.6-4.2-7-6.3-10.5-5.3a5,5,0,0,0-3.2,2.51,10.92,10.92,0,0,0-.9-2.81c-1.7-3.4-5.6-4.2-9.1-3.4a9.35,9.35,0,0,0-3.6,1.68v-64a6.5,6.5,0,0,1,0-1.32c-.21-1.54,2.59,5.17,6,6.22,7.2,2.4,14.9-2.6,16.7-9.6a17,17,0,0,0-4.19-16.12,7.77,7.77,0,0,0,2.79-1.68,5.61,5.61,0,0,0,1.63-5.53,7.65,7.65,0,0,0,3-8.47,5.34,5.34,0,0,0-6.9-3.5,6.06,6.06,0,0,0-2.56,1.52,8.91,8.91,0,0,0-2.14-.42,7.71,7.71,0,0,0-6.37,2.93c-3.2-4.87-9.74-5-14.43-1.63-4,2.6-.2,9.1,3.7,6.3,1.7-1.3,4.4-2,4.9.8a3.25,3.25,0,0,1-1.1,2.8c-1.2,1.2-3.4,1.5-5.1,1.6-4.3.4-7.9-1.6-11.3-4.1-3.9-2.9-7.2-6.1-8.8-10.8-1-2.9-1.3-6.1.2-8.9.7-1.3,2.1-3.4,3.5-4,.5-.2,1-.5,1.5-.7,2.3,1.6,2.3,3,.2,4.2-3.8,2.8-.1,9.3,3.8,6.5,4.7-3.4,7.8-9.5,3.6-14.7a8.79,8.79,0,0,0-8.34-3.28,10.3,10.3,0,0,0-.26-2.92,9.73,9.73,0,0,0-6.36-6.9c.68-4.27-2.35-9-7.44-7.3a8.83,8.83,0,0,0-5.18,10.64,7.21,7.21,0,0,0-4.07,4.86,8.78,8.78,0,0,0-8.55,3.2c-4.1,5.2-1.1,11.3,3.6,14.7,3.9,2.9,7.6-3.6,3.8-6.5a1.92,1.92,0,0,1-1.5-1.5,2.09,2.09,0,0,1,1.4-2.2,2.14,2.14,0,0,1,1.8.2,10.49,10.49,0,0,1,3.1,3.4c1.8,3,1.7,6.3.6,9.6-1.6,4.7-4.9,7.9-8.8,10.8-3.4,2.5-6.9,4.5-11.3,4.1a9.1,9.1,0,0,1-4.6-1.3c-3.4-2.5-.9-7.1,3.3-4,3.8,3.1,7.6-3.5,3.7-6.3-4.79-3.48-11.53-3.24-14.64,1.94a8.08,8.08,0,0,0-6.16-2.84,14.54,14.54,0,0,1-4.1-.7,5.44,5.44,0,0,0-7.4,1.8,7.59,7.59,0,0,0,2.4,9.69,6.74,6.74,0,0,0-.1,1.11,7.07,7.07,0,0,0,4.35,6.13,16.17,16.17,0,0,0-4.25,10.77c-.3,8.2,5.3,15.7,14.1,15.3,5.31-.26,8.77-3.52,9.1-7.32.21-12.12,0,24.45,0,36.72v33.37a11.72,11.72,0,0,0-12.3-4.27,9.1,9.1,0,0,0-6.9,6.6,5.07,5.07,0,0,0-.11.68c-3.2-2.34-10.15-1-9.49,3.72.6,4.2,7,6.3,10.5,5.3a5,5,0,0,0,3.2-2.51,10.92,10.92,0,0,0,.9,2.81c1.7,3.4,5.6,4.2,9.1,3.4a9,9,0,0,0,5.1-3.09v52.33c-.29-.42-.58-.84-.9-1.24-3-3.7-8.1-5.7-11.7-1.5-4.1,4.7-1.9,11.5,1.8,15.6,3.2,3.6,8.5-1.7,5.3-5.3-.7-.8-2.1-2.7-1.8-3.8.4-1.5,1.3.8,1.7,1.6a16.54,16.54,0,0,1,2,8.4,22.75,22.75,0,0,1-3.6,11.9c-1.7,2.5-4.4,6.4-7.7,6.5a5.1,5.1,0,0,1-3.1-1.1,4.22,4.22,0,0,1-1.3-3.2c0-.1-.3-3,.6-2.1,3.5,3.5,8.8-1.8,5.4-5.2-3.7-3.8-9.4-4.6-12.3.7A10.53,10.53,0,0,0,492,246a9.73,9.73,0,0,0-11.47,6.38c-4.27-.68-9,2.35-7.3,7.44a8.89,8.89,0,0,0,10.7,5.31,7.52,7.52,0,0,0,8.19,4.1,12.78,12.78,0,0,0,1,5.59c2.6,5.6,8.6,5.2,12.5,1.2,3.4-3.3-1.9-8.6-5.3-5.2-.6.6-.4-3.8.3-4.7a4.22,4.22,0,0,1,3.3-1.6c3.3-.1,6.2,4,7.9,6.5a22.18,22.18,0,0,1,3.6,11.2,16.59,16.59,0,0,1-1.6,8.5c-.4.9-1.4,3.1-2,2.6-.9-.7,1.4-3.9,1.7-4.2,3.2-3.6-2.1-8.9-5.3-5.3-3.6,4-5.7,10.5-2.1,15.2s8.8,2.7,12-1.2c.36-.44.68-.91,1-1.38V352a11.94,11.94,0,0,0-10.5-2.34,9.1,9.1,0,0,0-6.9,6.6,5.07,5.07,0,0,0-.11.68c-3.2-2.34-10.15-1-9.49,3.72.6,4.2,7,6.3,10.5,5.3a5,5,0,0,0,3.2-2.51,10.92,10.92,0,0,0,.9,2.81c1.7,3.4,5.6,4.2,9.1,3.4a9.44,9.44,0,0,0,3.3-1.46V429.8c0-1,0,15.84,0,1.32-.33-3.52-2.63-5.07-6-6.22-7.2-2.4-14.9,2.6-16.7,9.6a17,17,0,0,0,4,15.9,7.64,7.64,0,0,0-4.08,3.5,5.59,5.59,0,0,0-.56,3.8,7.58,7.58,0,0,0-2.24,9.5,5.44,5.44,0,0,0,7.4,1.8,16.25,16.25,0,0,1,1.7-.9,8.3,8.3,0,0,0,8.41-2.42c3.18,5,9.77,5.14,14.49,1.72,4-2.6.2-9.2-3.7-6.3-1.7,1.3-4.4,2-4.9-.8a3.25,3.25,0,0,1,1.1-2.8c1.2-1.2,3.4-1.5,5.1-1.6,4.3-.4,7.9,1.6,11.3,4.1,3.9,2.9,7.2,6.1,8.8,10.8,1,2.9,1.3,6.1-.2,8.9-.7,1.3-2.1,3.4-3.5,4-.5.2-1,.5-1.5.7-2.3-1.6-2.3-3-.2-4.2,3.8-2.8.1-9.3-3.8-6.5-4.7,3.4-7.8,9.5-3.6,14.7a8.74,8.74,0,0,0,7.82,3.33,10.82,10.82,0,0,0,.28,2.47,9.73,9.73,0,0,0,6.36,6.9c-.68,4.27,2.35,9,7.44,7.3a8.89,8.89,0,0,0,5.31-10.7,7.19,7.19,0,0,0,3.88-4.55,8.89,8.89,0,0,0,9.11-3.15c4.1-5.2,1.1-11.3-3.6-14.7-3.9-2.9-7.6,3.6-3.8,6.5,1.8.8-.5,4.7-1.7,3.5-1.2-.4-2.5-2.4-3.1-3.4-1.8-3-1.7-6.3-.6-9.6,1.6-4.7,4.9-7.9,8.8-10.8,3.4-2.5,6.9-4.5,11.3-4.1a9.1,9.1,0,0,1,4.6,1.3c3.4,2.5.9,7.1-3.3,4-3.8-3-7.6,3.5-3.7,6.3,4.79,3.48,11.53,3.24,14.65-1.94a8,8,0,0,0,6.15,2.84,9.83,9.83,0,0,0,2.47-.48,6,6,0,0,0,1.63,1.18,5.44,5.44,0,0,0,7.4-1.8,7.59,7.59,0,0,0-2.4-9.69,6.74,6.74,0,0,0,.1-1.11,7.07,7.07,0,0,0-4.35-6.13,16.17,16.17,0,0,0,4.25-10.77c.3-8.2-5.3-15.7-14.1-15.3-5.31.26-8.78,6.38-9.1,7.32s0-24.45,0-36.72V364.78a11.7,11.7,0,0,0,12.7,4.82,9.1,9.1,0,0,0,6.9-6.6,5.07,5.07,0,0,0,.11-.68c3.2,2.34,10.15,1,9.49-3.72-.6-4.2-7-6.3-10.5-5.3a5,5,0,0,0-3.2,2.51,10.92,10.92,0,0,0-.9-2.81c-1.7-3.4-5.6-4.2-9.1-3.4a8.88,8.88,0,0,0-5.5,3.69V299.8a20.51,20.51,0,0,0,1.3,1.8c3,3.7,8.1,5.7,11.7,1.5,4.1-4.7,1.9-11.5-1.8-15.6-3.2-3.6-8.5,1.7-5.3,5.3.7.8,2.1,2.7,1.8,3.8-.4,1.5-1.3-.8-1.7-1.6a16.54,16.54,0,0,1-2-8.4,22.75,22.75,0,0,1,3.6-11.9c1.7-2.5,4.4-6.4,7.7-6.5a5.1,5.1,0,0,1,3.1,1.1,4.22,4.22,0,0,1,1.3,3.2c0,.1.3,3-.6,2.1-3.5-3.5-8.8,1.8-5.4,5.2,3.7,3.8,9.4,4.6,12.3-.7a10.61,10.61,0,0,0,1.13-3.38,9.73,9.73,0,0,0,11.47-6.38C625.09,270,629.84,267,628.12,261.9Zm-43.3-102.7a3.56,3.56,0,0,1,2.9-1.4c.88.15,1.14.39,1.26.76-2.49-.59-5.1,2.69-2.76,4.94a9,9,0,0,0,4.68,2.74,5.18,5.18,0,0,1-1.18.16C586.32,166.5,582.42,162.8,584.82,159.2Zm-70.5,5.7a3.56,3.56,0,0,1-2.9,1.4c-.85-.14-1.12-.37-1.25-.72,2.49.61,5.08-2.73,2.75-5a9,9,0,0,0-4.68-2.74,5.18,5.18,0,0,1,1.18-.16C512.82,157.6,516.72,161.3,514.32,164.9Zm2.2,197.6a3.56,3.56,0,0,1-2.9,1.4c-.88-.15-1.14-.39-1.26-.76,2.49.59,5.1-2.69,2.76-4.94a9,9,0,0,0-4.68-2.74,5.18,5.18,0,0,1,1.18-.16C515,355.2,518.92,358.9,516.52,362.5Zm70.5-5.7a3.56,3.56,0,0,1,2.9-1.4c.85.14,1.12.37,1.25.72-2.49-.61-5.08,2.73-2.75,5a9,9,0,0,0,4.68,2.74,5.18,5.18,0,0,1-1.18.16C588.52,364.1,584.62,360.4,587,356.8Zm6.9-272.6c-.8.8-4,1.8-2-.6,4-4.9-3-12.1-7.1-7.1-1.4,1.7-2.79,4.21-2.92,5.93,0,12.33,0-.69,0-1,.64-5.07,1.46-8,8.1-7.8,3.5.5,5,3.3,5.1,6.5C595.12,81.6,595.12,83.1,593.92,84.2ZM515.82,75c-4.1-5-11.1,2.1-7.1,7.1,1.2,1.5.3,1.7-1.1,1.3-1.8-.6-2-2.5-2.1-4.2-.2-2.5.5-4.8,2.7-6.2,4.8-3,10.1,1.4,10.5,6.4a16.28,16.28,0,0,1,.08,2.16C518.91,88,518,76.7,515.82,75ZM517,265.4a28.41,28.41,0,0,0-6.48-6.56,32,32,0,0,0,6.18-6.34,27.23,27.23,0,0,0,2-3c0,2.57.4,10.85.4,11.32v7.79A26.61,26.61,0,0,0,517,265.4Zm-9.9,169.9c.8-.8,4-1.8,2,.6-4,4.9,3,12.1,7.1,7.1,1.4-1.7,2.93-6.28,2.92-5.93S517.31,447,511,445.9c-3.5-.5-5-3.3-5.1-6.5C505.92,437.9,505.92,436.4,507.12,435.3Zm52.2,22.4a28,28,0,0,0-8.59,12.56,27.43,27.43,0,0,0-9-14.16c-4.37-3.61-10-7-15.74-7.84,5-7.78,3.24-19.5,3.24-28.16V260.7c0-.87-.4-3.05-.4-3.5V84.9c0-3.9.2-7.8-1.2-11.6a18.07,18.07,0,0,0-1.94-3.77c5.81-.82,11.53-4.19,15.94-7.83a28,28,0,0,0,8.58-12.51,27.46,27.46,0,0,0,9,14.21c4.39,3.63,10,7,15.84,7.86-5,7.77-3.24,19.48-3.24,28.14V258.8c0,.79.3,2.92.3,3.4V434.5c0,3.9-.2,7.8,1.2,11.6a18.07,18.07,0,0,0,1.94,3.77C569.45,450.69,563.73,454.06,559.32,457.7Zm25.8-13.3c4.1,5,11.1-2.1,7.1-7.1-1.2-1.5-.3-1.7,1.1-1.3,1.8.6,2,2.5,2.1,4.2.2,2.5-.5,4.8-2.7,6.2-4.8,3-10.1-1.4-10.5-6.4-.07-.7.25,2.18-.08-2.16C581.9,425.41,582.2,442.32,585.12,444.4Zm-.5-175.2a27.38,27.38,0,0,0-2.4,3.71c0-3.56-.3-13.71-.3-14.21v-6.11a27.38,27.38,0,0,0,2.4,3.71,28.41,28.41,0,0,0,6.48,6.56A32,32,0,0,0,584.62,269.2Z" transform="translate(-471.36 -8.84)"/><circle id="eight" class="cls-2" cx="79.51" cy="395.53" r="6.16"/><circle id="seven" class="cls-2" cx="79.51" cy="353.44" r="6.16"/><circle id="six" class="cls-2" cx="79.51" cy="311.34" r="6.16"/><circle id="five" class="cls-2" cx="79.51" cy="269.25" r="6.16"/><circle id="four" class="cls-2" cx="79.51" cy="227.16" r="6.16"/><circle id="three" class="cls-2" cx="79.51" cy="185.06" r="6.16"/><circle id="two" class="cls-2" cx="79.51" cy="142.97" r="6.16"/><circle id="one" class="cls-2" cx="79.51" cy="100.88" r="6.16"/>
<script src="../js/voyageScrolls.js"></script>
</svg>