<?xml version="1.0" encoding="utf-8"?>
<!-- Generator: Adobe Illustrator 22.0.1, SVG Export Plug-In . SVG Version: 6.00 Build 0)  -->
<svg version="1.1" id="Layer_1" xmlns="http://www.w3.org/2000/svg" xmlns:xlink="http://www.w3.org/1999/xlink" x="0px" y="0px"
	 viewBox="0 0 835.9 91" style="enable-background:new 0 0 835.9 91;" xml:space="preserve">
<style type="text/css">
	.st0{filter:url(#Adobe_OpacityMaskFilter);}
	.st1{fill:#FFFFFF;}
	.st2{mask:url(#mask-2_1_);fill:#770000;}
</style>
<title>Page 1</title>
<desc>Created with Sketch.</desc>
<g id="Artboard" transform="translate(-714.000000, -149.000000)">
	<g id="Page-1" transform="translate(714.000000, 149.000000)">
		<g id="Clip-2">
		</g>
		<defs>
			<filter id="Adobe_OpacityMaskFilter" filterUnits="userSpaceOnUse" x="0" y="0" width="835.9" height="91">
				<feColorMatrix  type="matrix" values="1 0 0 0 0  0 1 0 0 0  0 0 1 0 0  0 0 0 1 0"/>
			</filter>
		</defs>
		<mask maskUnits="userSpaceOnUse" x="0" y="0" width="835.9" height="91" id="mask-2_1_">
			<g class="st0">
				<polygon id="path-1_1_" class="st1" points="0,0 835.9,0 835.9,91 0,91 				"/>
			</g>
		</mask>
		<path id="Fill-1" class="st2" d="M507.8,39.3c-14.8,11.3-39.6,15.6-59.6,18.8c-19.2,3.1-38.8,4.5-58.5,4.7
			c-7.4,0.1-15-0.2-22.3-1.3c-8.1-1.2-11.5-3.1-3.5-7.2c14.9-7.5,34.3-11.4,51.6-14.9c25-5,52.8-6.5,78.6-5.6
			c6.1,0.2,12.3,0.4,18.5,0.7C511.5,36,509.9,37.7,507.8,39.3 M808.7,30.6c-5.5,14.1-16.6,18.2-35.4,20.1
			c-57.2,5.7-138.6-14.7-176.7-21c-23.2-3.9-46.5-5.4-70.1-5.5c-0.8-3.7-3.2-7.7-7.7-11.8C504.1-0.9,478.4-0.9,457.1,0.8
			c-29.6,2.4-59.5,8.8-87.8,15.4c-73,17-141.7,43.9-217.8,53.1c-29.4,3.5-64.7,4.9-91-7.1C48.7,56.7,43.1,48.6,42,38.5
			c-1.4-12.8,10.4-20.3,27.3-17.2c1,0.2,0.8-0.4,0.4-1.2C59.8,0.8,2.9,1.5,0,40.7C-1.2,58.1,32,102,148.5,88.5
			c39.9-4.6,85.9-21.4,123.4-32.2c40.4-11.6,79.5-25.3,120.7-35.4c27.8-6.8,58.5-13.1,88.1-12.1c14.2,0.5,29.9,6.9,33.5,15.6
			c-4.2,0.1-8.4,0.2-12.6,0.3c-28.5,0.9-59.2,2.4-86.8,7.7c-18.9,3.6-38.9,8.4-55.4,16.2c-11.7,5.5-14.6,14.6,0.2,18.9
			c15.4,4.5,34.5,3.5,50.6,2.6c23-1.3,46.1-4.4,68-9.9c16.3-4.1,38.9-13.1,46.3-25.1c18,0.9,36.2,2.3,53.6,4.7
			c31.3,4.3,83.5,16.5,114.1,23.1c58.8,12.8,81.7,13.4,115.7,11.4c23.3-1.4,46.3-27.1,6.7-47.1C810.3,25,810.1,27,808.7,30.6"/>
	</g>
</g>
</svg>
