<?xml version="1.0" encoding="utf-8"?>
<!-- Generator: Adobe Illustrator 22.0.1, SVG Export Plug-In . SVG Version: 6.00 Build 0)  -->
<svg version="1.1" id="Layer_1" xmlns="http://www.w3.org/2000/svg" xmlns:xlink="http://www.w3.org/1999/xlink" x="0px" y="0px"
	 viewBox="0 0 467 359" style="enable-background:new 0 0 467 359;" xml:space="preserve">
<style type="text/css">
	.st0{fill:#9A0000;}
</style>
<g>
	<path class="st0" d="M202,197.2c2.6,0.5,4.7,0.8,6.9,1.2c0,0.3-0.1,0.7-0.1,1c-0.6,0-1.3,0.2-1.9,0.1c-5.9-0.8-6-0.9-8.7,4.4
		c-4.6,8.9-9.1,17.8-13.3,26.9c-1.3,2.7-1.9,5.8-2.3,8.8c-0.4,3.2,1.2,5,4.4,4.6c2.7-0.3,5.6-0.9,7.9-2.3c9.3-5.4,17.6-12,23.6-21.2
		c4.5-6.9,9.5-13.2,16.1-18.2c4.9-3.7,10.3-6.2,16.6-6c0.7,0,1.6-0.7,2-1.4c2.2-3.5,4.2-7.2,6.4-10.7c0.6-0.9,1.7-1.5,2.5-2.3
		c0.6,0.9,1.5,1.8,1.9,2.8c1,2.6,0.2,5-1.1,7.3c-11.5,20.4-22.9,40.8-34.4,61.2c-2.4,4.3-5,8.4-7.8,13c1.1,0.4,2.1,0.7,3,1
		c13.7,4,26.5,9.9,38.6,17.4c3.9,2.4,8.1,4.5,12.4,6.1c6.8,2.5,13.5,1.6,20-1.5c10.1-4.9,18.4-12.1,26.3-19.8
		c2.9-2.8,5.6-5.9,8.7-9.2c1.1,3.3,1.4,5.2-0.9,7.4c-8.5,8.2-16.7,16.7-26.7,23.1c-6.8,4.4-13.9,8-22.4,6.9
		c-6.9-0.9-13.1-3.7-18.7-7.5c-9.9-6.6-20.5-11.7-31.7-15.5c-3.1-1.1-6.4-1.8-9.5-2.9c-1.7-0.6-2.5-0.2-3.5,1.3
		c-6.4,10.6-12.8,21.2-19.5,31.6c-8.3,12.8-17.8,24.6-30.6,33.3c-15.4,10.5-32.3,15.1-50.9,13.2c-15.9-1.6-25.5-12.1-25.3-28.6
		c0.3-22.7,10.6-39.3,31.4-49c24.8-11.5,50.8-14.7,77.7-11.5c4.9,0.6,9.7,1.7,14.5,2.6c1.2,0.2,2.2,0.4,3-1
		c7.4-13.7,14.8-27.3,22.2-40.9c0.1-0.3,0.2-0.6,0.5-1.6c-3.6,4.4-6.5,8.3-9.7,12c-2.5,2.9-5.2,5.5-8,8.2c-1,0.9-2.1,1.7-3.3,2.3
		c-2.2,1.2-4.5,2-6.7,0.3c-2.1-1.6-2-3.9-1.5-6.1c0.5-2.5,1.4-4.8,2.3-7.8c-0.8,0.7-1.4,1.2-2,1.6c-5.5,4.1-10.8,8.5-16.6,12.1
		c-3.1,1.9-7.1,2.8-10.8,3.2c-5.3,0.5-8.3-2.8-7.4-8c0.8-4.5,2.5-8.9,3.8-13.3c-0.3,0.3-0.7,1-1.3,1.5c-4.9,4.5-9.7,9.2-14.9,13.4
		c-1.9,1.5-4.5,2.5-6.9,3.1c-3.8,0.9-6.1-1.1-5.6-4.9c0.3-2.8,1.1-5.7,2.2-8.3c5.9-13.3,15.5-23.2,28.3-29.9c3.8-2,8.4-2.4,12.6-3.6
		c0.7-0.2,1.8-0.4,2.1-1c1.9-3.7,5.5-3.8,9.2-4.8C204.2,193.6,203.2,195.3,202,197.2z M213.4,270.5c-12.1-2.7-23.8-3.8-35.6-3.5
		c-17.7,0.4-35,3.3-51.3,10.3c-11.3,4.9-21,11.7-27.7,22.4c-3.8,6.1-6.6,12.8-6.7,20.1c-0.2,10.1,4.9,17.6,13.9,21.6
		c19.7,8.9,39.1,7.9,57.6-3.6c8.9-5.5,16-13,22.5-21.2c8.8-11.1,15.2-23.7,21.9-36C209.7,277.3,211.5,274.1,213.4,270.5z
		 M194.8,199.1c-4.5-0.3-9.2,1.4-13.6,4.9c-9.8,7.8-16.5,17.8-21,29.5c-0.5,1.3-0.9,2.8-1.1,4.2c-0.3,2.2,0.6,2.9,2.6,2
		c1.6-0.8,3.1-1.8,4.5-2.8C179.7,227.3,187.2,213.3,194.8,199.1z M251.3,199.9c-6-0.5-11,0-15.1,4.3c-8.5,8.7-14.4,18.8-17.2,30.6
		c-0.4,1.6,0.1,3.4,0.1,5.1c1.5-0.8,3-1.5,4.5-2.3c0.1,0,0.1-0.1,0.2-0.2c8.5-8.1,15.2-17.5,21.5-27.3
		C247.3,207,249.1,203.7,251.3,199.9z"/>
	<path class="st0" d="M186.6,79.9c0.9-3.4,1.5-6.9,2.8-10.1c0.4-1.2,2.2-2.1,3.5-2.7c12.2-6.2,25.1-9.7,38.7-10.6
		c10.8-0.7,21.5-0.9,32.1,1.9c1,0.3,2,0.6,2.9,0.9c9.1,3.3,12.5,11.5,8.4,20.3c-2.9,6.3-7.9,10.8-13.7,14.3
		c-7.7,4.7-16.2,7.3-25.2,8.3c-1.6,0.2-3.1,0.4-1.8,2.6c10.5,17.7,21,35.5,34.9,50.9c6.6,7.3,14.4,13.1,23.5,17.1
		c14.3,6.3,28.5,5.7,42.5-1.1c0.8-0.4,1.5-0.8,2.3-1.1c0.1-0.1,0.3,0,1,0.5c-0.7,0.6-1.3,1.5-2.1,1.9c-11.6,6.1-23.9,8.1-36.9,7
		c-18-1.5-32.5-9.3-43.4-23.5c-7-9.1-13.3-18.8-19.5-28.5c-4.9-7.6-9.3-15.6-13.9-23.4c-0.5-0.8-0.9-1.6-1.6-2.9
		c1.9-0.1,3.3-0.3,4.8-0.3c7.8-0.3,15.4-1.4,22.5-4.6c7.8-3.5,13.7-8.8,15.6-17.5c2.4-10.9-2.8-18.6-13.9-20.3
		c-0.9-0.1-1.9-0.2-2.8-0.3c-5.6-0.7-10.1,0.7-13.2,5.9c-11.3,19-22.8,37.9-34,57c-4.7,8-8.7,16.5-13.1,24.7
		c-0.4,0.8-1.6,1.7-2.4,1.6c-5.2-0.7-10-0.3-13.7,4c-0.1,0.1-0.3,0-1,0c0.5-1,0.8-1.9,1.2-2.6c9.4-14.5,19.2-28.8,28.2-43.5
		c8.5-13.8,16.2-28.1,24.2-42.1c0.6-1,0.8-2.3,1.2-3.5c-1.2-0.1-2.4-0.4-3.6-0.3c-7.8,0.8-15,3.5-21.8,7.4
		c-4.6,2.6-7.8,6.7-10.6,11.1c-0.5,0.7-1,1.4-1.5,2.1C187.2,80.2,186.9,80.1,186.6,79.9z"/>
	<path class="st0" d="M8.3,243.1c17.7-28.2,33.7-56.9,49-85.9c1.6-3,1.3-3.5-2-3.2c-7.1,0.7-14.1,1.6-21.2,2.4
		c-1.3,0.1-2.7,0.2-4.1,0.1c-1.7-0.1-2.8-1-3-2.9c-0.2-3,0.7-3.8,3.4-2.5c3.5,1.7,7.2,1.6,11,1.5c13.5-0.5,26.9-1.3,40.4-1.4
		c6.4,0,12.9,0.9,19.1,2.5c15.1,3.9,22.1,13.9,21.1,29.4c-1,14.3-7.3,26.3-16.3,37.1c-12.8,15.3-29.4,22.9-49.1,23.9
		c-7.4,0.4-14.9-0.2-22.3-1c-3.3-0.3-6.6-1.6-9.6-3.2c-3.6-1.9-6.7-1.9-10.1,0.1c-1.5,0.9-2.9,1.8-4.4,2.6C9.7,243,9,243,8.3,243.1z
		 M48.9,243c4.1-0.4,7.1-0.5,10.1-1c30.2-5,52.4-31.9,52.2-63.2c0-10.2-4.7-17.4-14-21.7c-7.4-3.4-15.2-3.8-23.1-3.8
		c-2.5,0-4.1,1-5.4,3.1c-14.7,23.5-28.4,47.6-40.9,72.4c-2.4,4.7-2.2,5.8,2.2,8.7c2.2,1.5,4.7,2.7,7.3,3.4
		C41.4,242,45.7,242.5,48.9,243z"/>
	<path class="st0" d="M381.1,122.4c-4.5,8.8-9.1,17.6-15.7,25.1c-2.8,3.2-6.1,6.1-9.5,8.8c-3.8,2.9-8.2,4.4-13.1,4.2
		c-6-0.3-9.8-4-10-10c-0.2-5.7,1.6-11,3.7-16.2c0.9-2.3,2-4.5,2.7-6.9c-2.8,3.2-5.5,6.5-8.5,9.5c-3.2,3.3-6.5,6.5-10.1,9.2
		c-2.1,1.6-5,2.6-7.6,3c-2.9,0.5-4.5-1.1-4.7-4.1c-0.1-2.1,0.3-4.3,0.5-6.4c-3.7,2.2-7.4,4.5-11.3,6.6c-4.6,2.5-9.6,3.9-14.8,4.2
		c-1.5,0.1-3.1,0-4.5-0.3c-4.4-0.8-6.5-3.2-6.7-7.7c-0.2-5.7,1.6-10.9,4.2-15.8c4.4-8.6,10.6-15.7,19-20.7c3.1-1.8,6.3-2.8,9.9-2.6
		c3.2,0.2,4.6,1.9,4.1,5.1c-0.6,3.6-2.6,6.4-5.2,8.8c-5.1,4.6-11.2,6.6-17.9,6.7c-1.7,0-2.8,0.5-3.1,2.2c-0.9,4.2-2.2,8.4-2.4,12.6
		c-0.3,5.3,2.8,8.2,8.1,7.6c3.5-0.4,7-1.3,10.2-2.7c6.8-3,12.6-7.3,16.6-13.9c3-4.9,7.2-9.2,11.2-13.4c6.5-6.7,14.6-10.7,23.7-12.6
		c2-0.4,3.2-1.4,4.2-3.1c12.3-21.7,25.8-42.5,42-61.5c6.4-7.5,12.8-15,21-20.6c4.8-3.3,10.2-6,15.7-8.3c2.9-1.2,6.5-1.1,9.7-0.9
		c2.9,0.2,3.3,1.9,1.7,4.2c-0.7,1-1.4,2.1-1.8,3.3c-0.5,1.7-1.5,2.2-3,1.5c-8.8-3.7-16.6-1.3-23.8,4.1c-7.5,5.6-14,12.4-19.4,20
		c-17.6,24.7-33.8,50.3-47.3,77.5c-4.4,8.8-8.5,17.8-10.6,27.5c-0.4,2-0.5,4.1-0.3,6c0.5,4.3,3.3,6.3,7.6,5.9
		c4.2-0.4,7.8-2.2,11.1-4.7c6.9-5.4,12.1-12.1,16.4-19.6c2-3.5,3.8-7,5.7-10.5c0.4-0.7,1.1-1.3,1.7-1.9
		C380.5,122,380.8,122.2,381.1,122.4z M350.6,105.6c-6.2-0.1-11.4,1.6-15.6,5.8c-7.4,7.5-13.4,15.9-17.2,25.8
		c-0.4,1.1-0.8,2.3-0.9,3.4c0,1,0.2,2.4,0.8,2.8c0.7,0.4,2.2,0.2,3-0.3c1.9-1.1,3.7-2.5,5.2-4c9.1-8.6,16.5-18.4,22.5-29.3
		C349.2,108.5,349.8,107.2,350.6,105.6z M284.3,120.8c7,2.1,15.3-2.7,17.3-9.7c0.6-2,1.6-4.4-0.4-5.9c-2.2-1.6-4.4-0.1-6.2,1.3
		C290.2,110.3,287.2,115.4,284.3,120.8z"/>
	<path class="st0" d="M344.3,202.2c-1.5,0.9-2.3,1.2-3,1.8c-6.1,5.2-12.4,10.1-18,15.7c-3.2,3.1-5.4,7.3-7.9,11.1
		c-2.4,3.6-4.4,7.4-6.7,11.1c-0.4,0.6-1.1,1-1.6,1.5c-0.5-0.6-1.2-1.2-1.5-1.9c-1.5-3-0.6-5.5,1.4-7.9c3.5-4.2,7.1-8.5,9.1-13.7
		c0.3-0.8,0.6-1.5,1.2-2.8c-8.8,4.5-16.6,4.5-23.3-3.6c-1,1.9-1.9,3.7-2.8,5.5c-4.2,8.2-9.5,15.5-17,21c-3.4,2.5-7,4.5-11.5,4.3
		c-4.6-0.2-6.9-2.6-6.6-7.2c0.2-2.5,0.6-5.1,1.5-7.4c3.5-9.6,9.1-17.8,17-24.3c4.5-3.7,9.5-6.2,15.2-7.3c0.9-0.2,2-1,2.3-1.7
		c1.8-4.5,3.7-5.8,9.5-5.7c-0.3,0.9-0.6,1.6-0.9,2.3c-2.4,5.9-3,12-1.4,18.2c1.4,5.6,5.2,7.9,10.9,6.9c4.9-0.9,8.9-3.1,10.8-8.1
		c1.2-3.2,2.9-6.3,4.3-9.5c0.7-1.7,1.6-3.1,3.8-2.2c2,0.8,2.6,2.7,1.4,4.9c-2.1,3.8-4.2,7.5-6.3,11.3c-0.4,0.7-0.7,1.5-0.7,2.6
		c0.7-0.6,1.4-1.2,2.2-1.8c6.9-5.6,13.9-11.2,20.9-16.7c1.1-0.8,2.2-1.6,3.5-2.1c0.9-0.3,2.4-0.3,2.9,0.3c0.6,0.7,0.8,2.1,0.7,3.2
		c-0.1,0.9-1,1.7-1.5,2.6c-5.3,9.3-10.7,18.5-15.8,27.8c-1.3,2.4-1.9,5.3-2.2,8c-0.4,3.2,1.1,4.8,4.3,4.4c2.8-0.4,5.7-1.2,8.1-2.6
		c10.4-5.9,19-13.9,25.9-23.6c0.5-0.8,1.3-1.4,2-2c0.2,0.2,0.4,0.3,0.6,0.5c-0.1,0.4-0.2,0.9-0.4,1.3c-8.1,11.1-17.5,20.8-30.1,26.7
		c-4.4,2.1-9.1,3.4-14,2.4c-3.1-0.6-4.1-1.6-3.6-4.7c0.4-2.6,1.2-5.3,2.4-7.7c3.1-6,6.5-11.9,9.7-17.9c1.7-3.1,3.3-6.1,4.8-9.3
		C343.9,204.9,343.9,203.9,344.3,202.2z M263.9,236c0.6,5.1,2.8,6.5,7.1,4.1c1.5-0.8,3.1-1.9,4.2-3.2c3.7-4.5,7.4-9,10.7-13.8
		c4.5-6.6,7.2-13.7,5.5-22c-0.3-1.7-0.9-2.4-2.4-1.8c-2,0.9-4.2,1.9-5.9,3.4c-6.9,6.1-11.9,13.7-15.5,22.1
		C266.2,228.4,265.2,232.2,263.9,236z"/>
	<path class="st0" d="M108.8,106.1c4.4-2.9,8.5-5.6,12.7-8.2c1.2-0.7,2.6-1.2,4-1.4c1.9-0.3,2.5,0.7,1.6,2.4c-0.4,0.8-1,1.4-1.4,2.1
		c-3.3,6.2-6.8,12.3-10,18.6c-0.8,1.5-1.2,3.4-1.3,5.1c-0.3,3.7,2.1,5.8,5.7,5c1.4-0.3,2.8-0.8,4-1.5c6.5-3.7,12.1-8.2,15.6-15.2
		c2.8-5.7,7.1-10.3,12.5-13.8c2.5-1.6,5.3-2.7,8.4-2.5c2.5,0.2,3.5,1.4,3,3.9c-0.6,3.3-2.6,5.7-5.2,7.6c-3.5,2.5-7.4,3.8-11.6,3.9
		c-1.5,0-2.5,0.5-2.8,1.9c-0.6,3.2-1.5,6.4-1.6,9.7c-0.1,3.2,2,5.3,5.2,4.9c3.3-0.4,6.7-1.2,9.7-2.7c6.2-2.9,11.1-7.7,15.6-12.8
		c0.5-0.6,1-1,2-1.2c-0.1,0.3,0,0.7-0.2,0.9c-7.4,8.6-15.7,15.8-27.1,18.4c-1.8,0.4-3.7,0.5-5.5,0.3c-4.2-0.3-6.1-2.3-6.1-6.5
		c0-1.6,0.2-3.2,0.4-5.1c-1.8,1.6-3.2,3.2-4.9,4.4c-4,2.8-8,5.7-12.3,8c-2.9,1.5-6.5,2.3-9.3-0.4c-2.9-2.8-1.7-6.3-0.3-9.3
		c2.6-5.6,5.5-11.1,8.2-16.7c0.7-1.4,1.1-2.9,1.6-4.3c-0.2-0.2-0.4-0.3-0.6-0.5c-1,0.5-2.1,0.8-3,1.4c-4.9,3.2-8.7,7.6-11.6,12.6
		c-2.8,4.7-5.2,9.5-7.9,14.2c-0.5,0.9-1.7,1.9-2.6,2c-2.7,0.2-3.5-1.6-1.9-4.3c5.2-9.1,10.3-18.3,15.8-27.3
		c11.7-19.1,23.4-38.2,37.2-55.9c5.7-7.3,12-14,19.5-19.6c4.7-3.5,9.8-6.1,15.8-6.4c2.2-0.1,4.4,0,6.5,0.5c7.7,1.9,11,8.6,8.1,16.3
		c-0.2-0.1-0.5-0.2-0.5-0.4c-2.4-7.8-7.2-11-15.5-10.7c-7.1,0.2-13.2,2.9-18.7,7.1c-9.3,7.2-16.4,16.4-22.9,26.1
		c-10.4,15.3-19.2,31.6-27.7,48C109.1,105.1,109,105.5,108.8,106.1z M145.5,110.6c6.7,1.2,13.1-3.6,13.3-9.4c0.1-2.2-0.9-3-3-2.4
		c-0.8,0.2-1.6,0.7-2.2,1.2C150,102.7,147.8,106.4,145.5,110.6z"/>
	<path class="st0" d="M89,64.5c-9.9,0.1-19.2-0.4-28.1,2.4C52.2,69.6,47,76,43.1,83.8c-0.8,1.6-1.5,3.1-2.3,4.7
		c-0.2,0-0.5-0.1-0.7-0.1c-0.1-0.6-0.3-1.3-0.2-1.9c2.3-6.9,5.4-13.3,10.7-18.6c4.8-4.8,10.8-5.1,17-5.1c13.6,0,27.3,0,40.9-0.4
		c5.6-0.2,11.1-1.8,15.5-5.7c2.8-2.4,3-2.9,4.2-8.7c4.1,2.5,4.8,6.2,1.9,9.7c-3.8,4.6-9.2,5.6-14.6,6.2c-4.7,0.5-9.5,0.5-14.2,0.5
		c-2.3,0-3.9,0.8-5,2.8c-9.5,16-19,31.9-28.4,47.9c-1.4,2.4-2.4,5.1-3,7.8c-0.8,3.5,0.6,5.6,4.1,6.4c3.1,0.7,6.3,0.7,10,1.1
		c-0.8,0.4-1.2,0.9-1.6,0.9c-5.7,0.1-11.4,0.6-17,0.2c-6-0.4-7.5-4.5-4.2-10.1c5.1-8.7,10.4-17.3,15.5-26C77,86.3,82.2,77.1,87.4,68
		C87.9,67,88.3,66,89,64.5z"/>
	<path class="st0" d="M134.4,212.3c4.6-3.5,8.4-6.7,12.5-9.5c2.4-1.7,5.1-3.1,7.8-4.1c1.8-0.7,4-0.9,5.9-0.6c2.8,0.4,3.3,2,1.7,4.4
		c-1.2,1.8-2.4,3.6-3.4,5.1c-2.4-1.2-4.4-3-6.6-3.2c-2.2-0.3-4.7,0.5-6.7,1.5c-5.5,2.8-10,6.9-13.3,11.9c-5.2,7.8-10,15.9-15,23.9
		c-1.7,2.7-3.1,2.8-4.8,0.2c-0.4-0.6-0.5-1.6-0.3-2.3c0.4-1.2,1-2.3,1.6-3.4c7-12.3,14.1-24.5,21.1-36.8c0.3-0.6,0.8-1.1,1.1-1.6
		c4.2,1.3,4.9,3,2.9,6.8C137.6,206.8,136.1,209.3,134.4,212.3z"/>
</g>
</svg>
